<?xml version="1.0" encoding="utf-8"?>
<!-- Generator: Adobe Illustrator 15.0.0, SVG Export Plug-In . SVG Version: 6.00 Build 0)  -->
<!DOCTYPE svg PUBLIC "-//W3C//DTD SVG 1.1//EN" "http://www.w3.org/Graphics/SVG/1.1/DTD/svg11.dtd">
<svg version="1.1" id="图层_1" xmlns="http://www.w3.org/2000/svg" xmlns:xlink="http://www.w3.org/1999/xlink" x="0px" y="0px"
	 width="1400px" height="1150px" viewBox="0 0 1400 1150" enable-background="new 0 0 1400 1150" xml:space="preserve">
<g id="图层_6">
	<path fill="#EEB718" d="M1021.844,1015.632c0,0-0.232-0.062-0.458-0.069c-0.096-0.002-0.198-0.034-0.293-0.052
		c-0.053-0.01-0.085-0.017-0.133-0.004c-0.064,0.02-0.091,0.058-0.163,0.002c-0.106-0.082-0.251,0.054-0.251,0.054l-0.392,0.046
		l-0.118,0.079c0,0-0.096,0.022-0.066,0.104c0.032,0.085,0.028,0.179,0.066,0.263c0.034,0.08,0.083,0.163,0.145,0.226
		c0.062,0.062,0.143,0.105,0.202,0.171c0.065,0.072,0.117,0.16,0.175,0.241c0.037,0.052,0.085,0.104,0.115,0.159
		c0.078,0.152,0.023,0.429,0.021,0.595c-0.003,0.181-0.026,0.36-0.024,0.542c0,0.044-0.028,0.275,0.004,0.301
		c0,0,0.103,0.088-0.096,0.124c0,0-0.059,0.125,0.06,0.203c0,0-0.019,0.229-0.096,0.229c0,0,0.012,0.115,0.132,0.133
		c0.065,0.009,0.092,0.086,0.146,0.108c0.05,0.021,0.115-0.019,0.161,0.021c0.015,0.012,0.082-0.079,0.105-0.111
		c0.004-0.006,0.007-0.01,0.007-0.011c0.051-0.065,0.082-0.107,0.171-0.113c0.007,0-0.004,0.09,0.007,0.102
		c0.027,0.03,0.125,0.013,0.156,0.004c0.077-0.025,0.138-0.025,0.179,0.006c0.041,0.03,0.018-0.049,0.168,0
		c0.148,0.047,0.183-0.091,0.225-0.113c0.042-0.025,0-0.073,0-0.073s0.047-0.076-0.07-0.088c-0.234-0.022-0.168-0.231-0.068-0.371
		c0.109-0.149,0.306-0.146,0.472-0.098c0,0,0.126,0.022,0.149-0.03c0.02-0.045,0.063-0.018,0.09-0.043
		c0.035-0.032,0.023-0.07,0.023-0.116c0,0,0.108-0.025,0.137-0.062c0.029-0.036,0.137-0.012,0.174,0c0,0,0.143,0.067,0.137-0.063
		c0,0,0.118-0.03,0.105-0.106c-0.012-0.079-0.117-0.073-0.158-0.28c-0.026-0.126-0.096-0.1-0.137,0
		c0.01-0.028-0.111-0.054-0.134,0.01c-0.059-0.021-0.104-0.052-0.17-0.04c0.004-0.042,0.004-0.092-0.021-0.125
		c-0.02,0.027-0.014,0.071-0.032,0.094c0,0-0.066,0.091-0.114-0.011c0,0,0.053-0.132-0.005-0.184c0,0,0.215-0.187,0.215-0.286
		c0-0.102-0.305,0.173-0.305,0.173v0.071c0,0-0.219,0.166-0.083-0.085c0,0,0.065-0.076-0.03-0.268c0,0,0.149-0.083,0.191-0.119
		c0.041-0.034,0.041-0.1,0.048-0.235c0.006-0.138-0.239-0.228-0.327-0.138c0,0-0.221,0.065-0.114-0.06c0,0,0.179-0.021,0.292-0.275
		c0.035-0.075,0.056-0.142,0.049-0.223c-0.004-0.042-0.001-0.146-0.025-0.18c-0.035-0.054-0.116-0.024-0.179-0.052
		c-0.054-0.022-0.013,0.079-0.013,0.079l-0.142-0.056H1021.844L1021.844,1015.632z"/>
	<path fill="#EEB718" d="M560.699,364.757l0.344-0.338h0.347v-0.342l-10.921-31.044l-6.821-5.454v-0.686l-1.708-12.616
		l-14.318-2.046h-0.343h-0.687v-0.345l-0.34-0.683v-0.339c-1.707-4.776-6.139-9.889-12.96-15.348
		c-3.76-3.067-7.505-5.118-10.588-5.796c-2.378-1.369-4.764-2.386-6.471-3.754c-4.436-3.071-19.782-5.46-46.728-6.138h-1.024l0,0
		l-3.067-4.78c-1.365-3.069-2.389-5.799-2.727-8.864c0-3.752,4.427-16.033,13.982-36.153l-4.771-15.013l0,0l-5.121-23.875
		c-0.679-3.411-6.478-6.48-16.712-9.554c-2.055-0.68-4.096-1.363-6.139-2.727c-3.754-1.706-6.486-4.773-7.851-8.526
		c-2.046-4.439-5.452-8.188-10.234-10.233l-0.339-0.345l-0.339-0.338l-4.089-21.148l-16.374,1.705l-1.715,4.431
		c-2.047,7.165-4.084,10.581-6.474,10.581l-10.577,3.408c-6.482,2.385-10.57,5.116-12.62,8.182
		c-1.022,1.369-2.043,5.463-2.729,10.921c-1.021,6.141-2.043,10.572-3.412,13.3c-2.045,4.434-5.111,7.847-9.898,9.55
		c-8.858,3.41-23.868-2.386-44.674-17.05l-27.969,35.812l3.411,14.669h0.339l0.348,0.683l-0.687,0.339v0.341
		c-1.368,2.049-3.411,3.413-5.803,3.753c-2.725,0.679-5.457-0.339-8.523-2.389c-2.729-2.044-10.579-3.751-23.192-4.431l-5.795-0.343
		l0,0l-8.537-0.684l-9.201,1.708l4.092,5.8c3.411,4.434,4.767,7.16,4.428,8.868l-3.748,22.168l1.701,11.946h0.344v0.337
		l-0.344,0.337l0,0l-6.819,22.169c-0.344,2.049-1.022,3.075-1.704,2.732h-0.683v-0.343l-1.021-2.044
		c-1.371-2.73-2.051-3.751-3.072-3.411c-0.682,0.339-1.706,1.703-2.041,4.771c-1.368,6.143-5.122,11.259-10.921,16.713l-6.139,4.777
		l-3.071,1.708l0,0h-0.339l-22.173,0.342l-8.533,8.185h-0.338h-0.685h-0.34l-23.534-3.412c-3.753,4.095-7.502,5.457-11.252,4.775
		c-3.413-1.022-9.209,0.345-17.395,3.412l-9.545,11.253l-0.346,0.683l-15.003,0.345v-12.621h-9.561l-1.712,5.456l-7.158,1.705H49.4
		l0,0l-0.335-0.339h-0.339c-4.443-2.732-9.899-4.778-15.355-5.456c-3.071-0.341-6.821,1.705-12.278,6.481
		c-5.794,4.774-9.891,9.208-11.946,13.299c1.033,0.684,1.711,2.047,1.711,4.088c0.679,2.393,1.026,4.441,1.026,7.166
		c-0.347,2.731-1.36,4.438-2.737,5.804c-1.693,1.02-2.723,4.09-3.744,9.548l5.455,3.753l7.508-7.848l9.553,10.574v0.688
		l2.044,18.754v0.343h-0.348l-5.452,25.92h-1.361c-7.841,0-12.966,0.34-15.012,1.708c0.351,1.704,3.748,4.434,9.548,8.192
		l4.787-0.685h1.01l0.354,0.341l11.252,10.913c4.428,3.755,4.089,10.236-1.707,19.782l1.707,10.572l4.428,1.029h17.396l-8.866,8.181
		l5.117,2.733l0,0l6.827,3.752l18.417,7.845l0.338,0.345h0.683l1.703,27.968c0.342,5.457,4.434,9.552,12.627,12.278l1.364-0.684
		h0.339h0.343l19.099,2.725h1.362v-0.339l0.348-0.684c2.039-3.745,3.412-6.484,3.412-7.159v-0.681
		c-0.352-3.073,1.017-5.802,3.748-7.845c2.728-2.048,4.431-4.095,5.452-6.48l0.344-0.335c1.024-2.739,4.438-3.422,10.235-1.715
		h0.343l0,0l6.474,3.75l21.492,4.099l13.305-1.029l9.55-4.086c1.711-2.386,3.063-3.415,4.093-4.101
		c1.711-0.34,4.092,0.343,6.82,2.731l1.367,0.686c1.365,1.022,2.39,3.067,3.751,6.817l6.819,5.118h5.123h0.338h0.687h0.335
		l7.167,3.07l13.291-1.019l7.515-2.391l19.44,1.706l8.523-2.386l9.893-4.1c2.054-1.364,4.434-2.385,7.854-3.411h18.752l6.827-2.384
		c2.716-1.708,5.114-2.726,7.159-2.726h10.906l5.12,3.75l14.678,3.071c2.039,0,4.086,1.697,7.495,4.774l6.14,4.095l0.683,0.675
		l13.982,0.342l0,0h0.346l6.483,3.414l8.518,1.708h0.354l7.164,1.019l2.043-4.098l-3.071-6.815l-1.368-6.827v-0.339h-0.339
		l1.021-1.019l4.786-6.486v-0.347l0,0h0.331v-0.335l4.782-3.412l0,0l-1.024-2.046l-2.05-6.824c0-1.025-1.026-1.699-3.067-3.067l0,0
		l-5.118-5.461l-6.485-5.46l-0.34-0.683l-0.675-0.339l0.341-0.334v-0.689l1.018-6.474v-4.774l-3.064-8.19l7.842-1.705l3.755-3.75
		h9.549l9.547-1.367h0.348l6.473,0.683l7.507-2.726l8.528-1.03l5.456-2.384h0.339l14.669-2.728l2.387-2.386l-0.682-2.731
		l-2.729-4.772v-0.34l-0.343-0.341v-0.34l0.682-5.114l0.343-0.345v-7.165l-1.367-6.139l0,0v-0.342l3.414-6.823
		c1.372-3.068,3.071-4.776,5.118-4.776l8.867,0.685c1.367,0,3.066-0.685,4.773-2.049l13.307-18.074v-0.342l0.344-0.343l7.162-5.796
		l0.684-0.684c2.729-0.682,4.431-1.706,5.46-2.387l1.704-1.703c2.38-3.074,4.431-4.441,5.792-4.441l11.599,2.393l9.892-4.78l0,0
		h0.343l0,0h0.34l5.8-0.68l4.774-2.045v-7.843l1.368-9.889v-0.341l0,0v-0.348l1.698-2.726L560.699,364.757L560.699,364.757z"/>
	<path fill="#EEB718" d="M572.302,481.411l-3.074,2.388c0,1.363,0.689,4.425,1.702,8.874v0.332l0.339,0.348h-0.339l-3.746,8.516
		l-5.113,2.048l-1.028,0.345h-0.344l-8.863-4.084h-0.346v-0.348l-16.707-15.344l-6.487-3.753l-10.229-3.756v-0.343l0,0h-0.342l0,0
		l-4.778-3.413l-8.523-2.722l-4.779,0.339h-0.338l-10.917-0.682h-0.336l-7.846-1.706h-4.783l-3.748,2.729
		c-2.047,1.027-4.781,1.367-8.188,2.042l-7.16,1.368l-6.138,2.046l-0.344,0.344v0.344v-0.344l-7.504,0.684l-7.842,3.071l0,0h-1.028
		l-6.473-0.683l-9.896,1.361h-8.185l-3.415,3.411h-0.338l-4.09,1.025l1.7,4.097v6.474l-1.018,5.798l5.796,4.778h0.342l0,0l0,0
		l4.778,5.457c3.067,2.389,4.429,4.096,4.429,6.14l1.707,5.109l2.388,5.124c-0.347,0-0.347,0.341-0.682,0.341l-6.485,4.777
		l-4.429,5.8l1.021,5.117l3.065,7.16l0.342,0.682l0,0v0.341l-0.683,2.73c-0.674,1.704-1.356,3.069-2.386,3.748
		c-2.046,1.708-5.46,1.708-10.912,0l-8.536-1.698h-0.334l0,0h-0.339l-6.141-3.066l-9.902-0.345l0.346,0.345l-1.021,17.049
		c-0.335,2.394-2.05,3.414-4.436,3.745c-1.021,0.35-1.706,1.718-1.368,4.438v0.343h-0.338l-0.679,4.429
		c2.385,2.054,4.09,3.758,4.771,5.123l1.715,8.185v3.067c-0.351,1.713-0.694,3.074-1.368,4.438l-2.394,6.831l-4.426,8.512v1.714
		l0.678,4.094l4.43,5.791c1.365,1.712,2.047,2.739,2.386,3.76l4.104,5.788l6.133,6.835c2.389,2.391,4.096,3.411,4.773,3.411
		l6.483-4.101c1.37-1.017,2.388-1.69,4.092-1.69c1.371,0,3.413,1.009,6.485,3.06l0,0h0.339v0.343l3.414,4.093l1.706,4.102
		l1.368,1.692l1.018,0.684l4.432,3.07l2.393,0.341c1.364,0.341,2.722,1.369,3.754,2.719c0.679,1.034,4.424,2.397,10.913,4.106h0.339
		l10.235,3.747h0.339h0.343l7.152,3.417l12.288,3.067l0.345,0.333l16.023,0.689l7.161-2.725h6.486v0.339l0.339,0.341l5.454,6.825
		l0,0v0.324l3.417,5.466l2.725,3.071l3.757,1.697l0.344,0.353l0,0l0.339,0.333l3.072,6.827v0.339h0.341v0.343l1.7,7.503l4.773,1.714
		h0.345h0.339l0,0l3.756,2.382l5.114-1.028l1.365-5.115v-0.337l0.343-0.339l5.795-5.804l6.486,1.702v0.688l3.071,6.817l6.477-2.383
		l0.68-6.481v-0.343v-0.34l0.339-0.34l4.44-2.383l-1.022-9.56v-0.68v-0.341l0,0l5.113-10.576l5.114-2.046l-2.044-9.55h5.118
		l-0.347-4.433l-2.728-9.201l0,0v-0.688l0.689-6.488v-1.021l0.674-0.327l3.414-4.455l0.687-0.678h1.013l9.214,1.716h0.342
		l7.507,2.04l6.476-2.04l3.755,7.503l0.34,0.339v5.45l1.023,5.121c0.684,2.047,2.044,3.404,3.412,3.755h0.677
		c3.076,0.676,4.779,2.039,5.114,4.088c0.348,1.709,1.711,4.099,4.094,6.821l3.07,4.432l0,0v0.349l2.054,3.751l3.063-0.343
		l5.799-5.112l3.762,7.831l7.503,2.396h0.339l0.339,0.345l3.753,6.823l1.708,1.021l0.343-6.484v-0.339v-1.021l15.001-0.345
		l0.336-1.363c0.343-0.674,0.343-2.043-0.336-3.066c-1.014-2.047-1.364-3.763-1.704-6.143c-0.342-2.733,0-4.772,0.69-5.454
		c1.014-1.367,1.692-1.367,3.402-1.03l6.139,2.049l0.684-4.436l-11.257-5.122h-0.679l-0.343-0.676v-0.343v-0.339l-1.707-13.641
		l0.339-8.535v-1.022v-0.678l18.76,2.378l4.776-4.433c1.027-1.701,0.684-3.066,0-3.405c-4.776-1.712-7.161-3.755-7.161-5.8
		c0-1.025,0.342-2.389,2.045-3.068l7.847-7.846l8.527-0.345l4.433-7.495v-7.165l6.488-1.372c1.699-5.122,2.729-7.837,3.405-8.868
		l2.726-5.802l-4.771-8.516v-0.345l0,0v-0.337l-3.075-11.601v-0.345l-2.037-11.938l-4.098-6.817l-6.139-6.142v-0.343v-0.339
		l-0.338-0.345l-0.339-6.48l-11.262,3.411l-0.346-0.335l-5.114-5.795l-15.349-11.606h-0.336l-5.81-7.504l-3.742-2.385l-2.39,3.75
		v0.686l-0.346,0.336h-0.34h-0.678l-4.781,0.35l-0.678,0.332h-0.34l-11.253-12.284c-2.396-1.01-4.778-3.411-8.188-6.816
		l-5.118-3.747l-0.343-0.348l-5.799-3.407l-3.411,2.721l-0.339,0.686l-0.347-0.339h-0.339l-3.069-0.678l-3.417,1.704l-0.336,0.343
		l-0.336,0.339h-0.342l-4.775,0.677C585.601,489.26,579.119,485.502,572.302,481.411z"/>
	<path fill="#EEB718" d="M132.631,537.354v0.335c-1.362,3.071-3.755,5.119-6.479,7.509c-2.045,1.024-2.729,2.729-2.729,4.78v1.019
		c0,1.702-1.023,4.438-3.748,8.522l-0.351,1.707c-0.68,1.03-2.038,1.708-4.428,1.708l-19.442-2.388v0.341l-1.364,4.435v0.341
		l-0.346,0.343l0,0c-5.117,7.156-8.529,12.28-8.864,15.696c-0.343,1.7,1.7,7.834,6.144,18.419l3.066,7.157
		c1.364,3.411,0.335,7.499-2.731,11.933l-6.144,6.145H74.988l-2.042-11.26l-2.732,13.983l4.436,6.829c0.339,1.018,0.339,1.7,0,2.047
		l-0.685,0.674c-1.369,1.022-3.411,4.433-5.45,10.235c-2.054,5.114-1.036,10.249,3.061,15.695h8.185
		c2.734,0.684,6.821,5.116,12.625,12.966l0.341,0.685l0,0c0,2.384,1.019,4.08,2.729,5.451l18.069,16.71v0.339l8.19,10.237h4.776
		l5.117-9.209l0.68-0.684l0.344-0.345l12.615,3.067v0.347v0.685l1.706,8.527l15.015,17.393l5.113,2.048l0.342,0.341l2.388,1.359
		l0.343,0.345l11.257,16.716l9.209-1.371h0.686h0.347l0.68,0.684l0.338,0.688l7.842,16.377l9.55,5.795l7.849,2.049l3.75,10.572
		h5.804l0.332,0.339l0,0l12.285,6.821v0.343l0,0l0.331,0.339l8.874,10.913l12.96-2.376h0.682l4.778,2.035h0.343l8.186,7.164
		l14.666,1.026l8.871-1.369l0,0c11.931-2.037,19.444-1.021,22.16,2.051c1.715,2.733,0.695,5.456-3.397,8.87l-3.414,3.404
		c-1.018,1.707,0.343,4.434,4.778,8.53l0.335,0.678h-0.335l2.729,2.055l1.019-1.022c8.526-16.044,15.351-24.902,20.122-26.603
		c5.117-1.712,15.69,2.725,32.407,12.96l20.471,3.744l-0.348,0.684v0.682l-1.026,9.558l10.235,1.363l-0.339,12.946
		c3.074,5.813,5.46,9.22,6.828,10.24c2.038,1.371,12.273,1.371,30.35,0l10.566-5.452l10.238-14.332l11.938-0.333l5.802-1.706
		l22.515-12.966h0.339l0.344-0.337l0,0c12.959-1.363,20.461-1.706,22.508,0l14.663,12.274l4.438,1.702l0.682,0.684l5.793,2.396
		l0.35,0.335v-1.017v-0.353v-0.335v-0.346l2.39-10.235c-1.025-3.063-1.025-5.453,0-7.499c0.674-1.698,2.381-2.727,5.114-3.41
		c5.115-1.021,9.896,3.41,14.669,12.96l0.682,0.344h0.332l8.528-3.756c1.711-0.335,2.394-2.045,2.394-3.745l-1.708-6.142v-0.351
		c-0.686-2.719,0-5.103,2.729-6.13l3.066-2.39l7.502-8.179l5.123-11.264c-4.437-7.16-5.801-12.275-4.437-15.678l1.025-9.563
		c-2.054-4.087-3.067-6.815-3.067-9.205c0-1.028-1.368-4.101-4.093-8.188h-0.344v-1.026l-1.028-12.281
		c-0.336-2.045-0.683-4.77,0-8.179c-3.063-2.394-5.108-4.779-6.478-7.16l-5.117-6.83l-0.344-0.338v-0.682v-0.343l-1.703-8.527
		l-5.118-4.084v0.331l-9.884-7.844v0.674l1.359,10.576v0.347v1.024l-5.112,2.393l-0.683,6.473v1.03l-11.942,4.775l-4.084-9.552
		l-2.393-0.688l-3.751,3.758l-2.389,6.813l-8.528,2.396l-4.771-3.411l-6.832-2.053l-2.042-9.54l-2.729-5.807l-4.092-1.696
		l-0.343-0.684l-3.076-3.764l0,0l-3.063-5.449l-4.774-6.14h-4.097l-6.82,2.39l-0.351,0.335l-17.384-1.021l-13.307-2.73
		c-1.016-0.689-3.413-1.71-7.164-4.088l-10.229-3.417c-7.846-2.049-12.281-3.749-13.307-5.799l-1.698-1.021l-2.39-0.676l-6.14-3.418
		l-0.683-0.339c-1.024-1.371-2.046-2.393-2.731-3.754l-1.367-3.077l-2.721-4.082l-4.442-2.054l-1.704,1.031l-1.708,1.357
		l-1.017,0.682c-1.703,1.369-3.41,2.051-4.782,2.384c-2.728,0.682-5.452-0.67-8.528-4.083l-6.478-6.828
		c-2.39-3.068-4.089-5.462-4.775-7.168l-1.706-2.721c-2.381-2.396-4.092-4.774-5.114-6.829c-1.024-3.066-1.359-5.799-0.339-8.528
		v-0.34l0,0l4.428-7.505l2.394-7.842l1.025-5.117l-1.706-7.838l-5.114-4.446l1.017-6.477c0-4.77,1.708-7.153,5.117-7.837
		c1.021-0.347,1.706-1.034,1.366-2.39v-0.343l0.34-6.829v-0.329l0,0v-7.848h-0.685l-0.335-0.343l0,0l0,0l-1.364-0.686v-0.343h-0.342
		l-6.14-4.089l0,0h-0.343l-4.777-4.094l-16.026-3.067l0,0l-5.114-3.752h-9.552c-1.368,0-3.073,1.021-5.462,2.386h-0.335
		l-7.511,2.731h-18.762c-2.725,0.678-5.121,1.359-6.478,2.729c-2.048,1.704-5.8,3.067-10.917,4.771l-8.867,2.045v0.341h-0.682
		l-12.62-1.367l-1.021-0.337l0.339,0.337l-0.339-0.337l-4.435-0.339l-7.503,2.386l-15.006,1.371h-0.343l-0.345-0.343l-7.502-2.739
		h-6.14c-2.73-0.675-5.795-2.721-9.209-6.814l-0.338-0.678c-0.688-3.07-1.712-4.439-2.052-5.121l-1.703-1.021l-3.066-1.71
		l-2.74,2.73l-0.326,0.682l-10.922,4.439h-0.347h-0.678l-13.312,1.359c-2.045,0-5.793-1.024-10.905-2.386l-11.603-2.044h-0.344l0,0
		l-6.809-3.755H132.631L132.631,537.354z"/>
	<path fill="#EEB718" d="M132.631,537.354v0.335c-1.362,3.071-3.755,5.119-6.479,7.509c-2.045,1.024-2.729,2.729-2.729,4.78v1.019
		c0,1.702-1.023,4.438-3.748,8.522l-0.351,1.707c-0.68,1.03-2.038,1.708-4.428,1.708l-19.442-2.388v0.341l-1.364,4.435v0.341
		l-0.346,0.343l0,0c-5.117,7.156-8.529,12.28-8.864,15.696c-0.343,1.7,1.7,7.834,6.144,18.419l3.066,7.157
		c1.364,3.411,0.335,7.499-2.731,11.933l-6.144,6.145H74.988l-2.042-11.26l-2.732,13.983l4.436,6.829c0.339,1.018,0.339,1.7,0,2.047
		l-0.685,0.674c-1.369,1.022-3.411,4.433-5.45,10.235c-2.054,5.114-1.036,10.249,3.061,15.695h8.185
		c2.734,0.684,6.821,5.116,12.625,12.966l0.341,0.685l0,0c0,2.384,1.019,4.08,2.729,5.451l18.069,16.71v0.339l8.19,10.237h4.776
		l5.117-9.209l0.68-0.684l0.344-0.345l12.615,3.067v0.347v0.685l1.706,8.527l15.015,17.393l5.113,2.048l0.342,0.341l2.388,1.359
		l0.343,0.345l11.257,16.716l9.209-1.371h0.686h0.347l0.68,0.684l0.338,0.688l7.842,16.377l9.55,5.795l7.849,2.049l3.75,10.572
		h5.804l0.332,0.339l0,0l12.285,6.821v0.343l0,0l0.331,0.339l8.874,10.913l12.96-2.376h0.682l4.778,2.035h0.343l8.186,7.164
		l14.666,1.026l8.871-1.369l0,0c11.931-2.037,19.444-1.021,22.16,2.051c1.715,2.733,0.695,5.456-3.397,8.87l-3.414,3.404
		c-1.018,1.707,0.343,4.434,4.778,8.53l0.335,0.678h-0.335l2.729,2.055l1.019-1.022c8.526-16.044,15.351-24.902,20.122-26.603
		c5.117-1.712,15.69,2.725,32.407,12.96l20.471,3.744l-0.348,0.684v0.682l-1.026,9.558l10.235,1.363l-0.339,12.946
		c3.074,5.813,5.46,9.22,6.828,10.24c2.038,1.371,12.273,1.371,30.35,0l10.566-5.452l10.238-14.332l11.938-0.333l5.802-1.706
		l22.515-12.966h0.339l0.344-0.337l0,0c12.959-1.363,20.461-1.706,22.508,0l14.663,12.274l4.438,1.702l0.682,0.684l5.793,2.396
		l0.35,0.335v-1.017v-0.353v-0.335v-0.346l2.39-10.235c-1.025-3.063-1.025-5.453,0-7.499c0.674-1.698,2.381-2.727,5.114-3.41
		c5.115-1.021,9.896,3.41,14.669,12.96l0.682,0.344h0.332l8.528-3.756c1.711-0.335,2.394-2.045,2.394-3.745l-1.708-6.142v-0.351
		c-0.686-2.719,0-5.103,2.729-6.13l3.066-2.39l7.502-8.179l5.123-11.264c-4.437-7.16-5.801-12.275-4.437-15.678l1.025-9.563
		c-2.054-4.087-3.067-6.815-3.067-9.205c0-1.028-1.368-4.101-4.093-8.188h-0.344v-1.026l-1.028-12.281
		c-0.336-2.045-0.683-4.77,0-8.179c-3.063-2.394-5.108-4.779-6.478-7.16l-5.117-6.83l-0.344-0.338v-0.682v-0.343l-1.703-8.527
		l-5.118-4.084v0.331l-9.884-7.844v0.674l1.359,10.576v0.347v1.024l-5.112,2.393l-0.683,6.473v1.03l-11.942,4.775l-4.084-9.552
		l-2.393-0.688l-3.751,3.758l-2.389,6.813l-8.528,2.396l-4.771-3.411l-6.832-2.053l-2.042-9.54l-2.729-5.807l-4.092-1.696
		l-0.343-0.684l-3.076-3.764l0,0l-3.063-5.449l-4.774-6.14h-4.097l-6.82,2.39l-0.351,0.335l-17.384-1.021l-13.307-2.73
		c-1.016-0.689-3.413-1.71-7.164-4.088l-10.229-3.417c-7.846-2.049-12.281-3.749-13.307-5.799l-1.698-1.021l-2.39-0.676l-6.14-3.418
		l-0.683-0.339c-1.024-1.371-2.046-2.393-2.731-3.754l-1.367-3.077l-2.721-4.082l-4.442-2.054l-1.704,1.031l-1.708,1.357
		l-1.017,0.682c-1.703,1.369-3.41,2.051-4.782,2.384c-2.728,0.682-5.452-0.67-8.528-4.083l-6.478-6.828
		c-2.39-3.068-4.089-5.462-4.775-7.168l-1.706-2.721c-2.381-2.396-4.092-4.774-5.114-6.829c-1.024-3.066-1.359-5.799-0.339-8.528
		v-0.34l0,0l4.428-7.505l2.394-7.842l1.025-5.117l-1.706-7.838l-5.114-4.446l1.017-6.477c0-4.77,1.708-7.153,5.117-7.837
		c1.021-0.347,1.706-1.034,1.366-2.39v-0.343l0.34-6.829v-0.329l0,0v-7.848h-0.685l-0.335-0.343l0,0l0,0l-1.364-0.686v-0.343h-0.342
		l-6.14-4.089l0,0h-0.343l-4.777-4.094l-16.026-3.067l0,0l-5.114-3.752h-9.552c-1.368,0-3.073,1.021-5.462,2.386h-0.335
		l-7.511,2.731h-18.762c-2.725,0.678-5.121,1.359-6.478,2.729c-2.048,1.704-5.8,3.067-10.917,4.771l-8.867,2.045v0.341h-0.682
		l-12.62-1.367l-1.021-0.337l0.339,0.337l-0.339-0.337l-4.435-0.339l-7.503,2.386l-15.006,1.371h-0.343l-0.345-0.343l-7.502-2.739
		h-6.14c-2.73-0.675-5.795-2.721-9.209-6.814l-0.338-0.678c-0.688-3.07-1.712-4.439-2.052-5.121l-1.703-1.021l-3.066-1.71
		l-2.74,2.73l-0.326,0.682l-10.922,4.439h-0.347h-0.678l-13.312,1.359c-2.045,0-5.793-1.024-10.905-2.386l-11.603-2.044h-0.344l0,0
		l-6.809-3.755H132.631L132.631,537.354z"/>
	<path fill="#EEB718" d="M1184.896,69.032l-2.382-7.505l-6.142-10.573l-5.113-2.73l-5.118,2.73l-3.07,6.14l-0.34,0.684h-0.682
		h-0.339l-9.546,1.704c-1.033,0.68-2.054,1.022-2.738,2.045l-2.043,2.387l-5.118,4.095l-1.364,0.681l-4.426,0.68
		c-2.061-0.337-5.128-2.046-9.219-5.114l-0.343-0.341c-6.817-6.82-10.227-11.594-10.227-14.327V40.72v-0.343v-0.34l1.016-1.706
		l-9.881-3.41l-0.346,3.41c0,1.022-1.027,2.389-2.729,3.415l-3.407,1.359l-1.372-0.341v-0.34l-5.112-1.021l1.024,3.749l-8.87-5.799
		h-0.344l-0.34-0.34l0,0c-1.364-3.752-2.053-7.504-2.053-11.596c0-3.409,0.348-5.458,1.712-6.821l2.049-3.754l-0.684-3.065
		l-8.87,1.364c-4.431,0.341-7.502,3.069-9.209,8.187v0.341l0,0l-5.117,7.841l5.117-0.339h0.342l0.34-0.342l0.335,0.681l4.101,1.708
		h0.682l0.681,0.341v1.022l0.683,7.166l2.049,6.817v0.339v0.342v0.342l-11.265,22.175c-2.038,3.067-3.063,11.25-3.738,23.534v1.018
		l-4.442,8.532l3.069,3.412v0.684c0.346,5.112,0,8.182-1.362,8.869l-1.025,0.337c-2.394,1.364-10.232,9.55-22.855,24.901
		l-1.018,1.021l-0.678-0.341l-1.029-0.68c-4.436-3.071-8.522-5.795-10.913-8.529c-2.047-1.365-7.168-2.387-15.691-2.387
		l-0.338,15.687l-0.343,0.342l-6.135,29.68c-1.367,3.75-1.712,10.572-1.712,20.806l2.386,3.07l2.049-4.094h0.341l0.339-0.683
		l7.846-4.095l21.83,3.414l2.388-2.728l3.071-5.46l0.674-0.339l0,0l0.348-0.341l8.523-1.703l11.257-0.686
		c3.422,0.686,7.515,5.116,12.619,11.938c13.649,6.819,21.157,12.959,22.864,18.416c1.012,2.732,1.012,4.778,0,7.168
		c-1.029,2.384-3.418,3.75-6.821,4.09h-0.356c-16.703-0.68-26.257-0.68-29.67,0.34l-8.181,5.458
		c-10.235,7.506-17.052,11.255-20.81,11.255l-6.824,1.025l-4.09,17.048c-1.022,5.12-2.731,8.531-5.798,10.918
		c-2.725,2.728-6.82,4.437-12.272,5.457c-6.485,1.023-11.941,3.419-17.061,6.484l-5.794,12.281l-0.339,0.339h-0.347h-0.343
		l-15.695,6.479h-1.023l-7.847-1.706c-6.134-1.021-10.912-2.729-13.991-4.774c-4.083-2.045-8.515-2.387-13.295-1.024
		c-4.093,5.798-6.136,12.962-5.801,20.807c0.346,4.092,1.373,6.822,2.39,7.504l2.396-0.338l2.721-1.705l0.688,10.913
		c0,3.748-1.372,6.479-4.093,8.526c-1.712,1.367-4.776,2.729-9.209,4.095l-2.727,0.677c-3.42,1.367-10.577,10.575-21.15,27.295
		v0.334h-0.34l-10.233,6.146c1.709,0,2.728,0.676,2.387,2.043c-0.346,1.362-1.362,1.703-4.086,2.048l-29-0.685
		c-32.41-1.023-57.651,7.847-75.72,26.264l-0.348,0.345l-0.683,0.345h-0.335l-11.941,1.358l-0.683,0.343h-0.677l-3.414-8.185
		l-12.274,3.07c-6.481,0.341-15.017-1.368-24.569-6.139c-8.87-3.753-16.712-8.869-24.553-15.009
		c-5.113-4.091-11.597-6.822-19.104-8.187l-10.912-1.023l-12.28,1.703c-8.871,1.367-17.738,1.367-25.923,0.685
		c-9.893-0.685-21.83-3.413-36.158-7.847l-1.021,2.048h0.344h0.339l0.338,0.344v0.334l0.336,3.412l3.079,6.479l7.16,8.874
		l0.342,1.024l-1.368,6.479v0.339h-0.342l-4.089,5.458l4.431,4.438c1.711,1.701,2.73,3.067,2.73,4.431l1.027,6.479l5.113,5.113
		v0.685l0.678,4.429v3.414l3.075,2.39l2.038-0.688l0.348-1.018c1.024-2.731,2.728-4.099,5.117-4.433l2.729-1.025l18.077-1.705
		l7.167-2.729l0.679-0.341l1.023-0.684l3.753,8.187h0.333l0,0c0.351,2.046,0,3.749-1.012,5.455l-9.899,13.993l0.683,2.385
		l4.439,4.432l4.432,2.732h0.346c2.043,2.727,3.751,4.436,5.793,5.119c2.386,0.678,4.774,2.724,6.821,5.457l0.335,1.018l3.414,1.366
		l1.033,0.343h0.333l1.031,3.752l0,0l0.335,3.749l1.362,5.459l8.535,1.368h0.677l0.339,0.332v0.347l0.346,0.686l2.387,4.775
		l6.824,2.377l4.779-2.377l-0.695-2.728l-4.422-4.093l0.677-0.686v-0.679l3.745-7.163h8.189l0.338,0.34l11.606,4.09l6.472-1.023
		l5.125-4.773c5.795-7.162,9.543-10.237,11.934-8.529l2.724-0.339c3.075,0,4.788,0.339,5.809,0.681
		c0.339,0.686,0.679,1.367,0.679,2.042c0,1.368,1.364,4.1,3.413,7.853v0.338v0.348l1.022,4.773v1.021l-1.356,5.453l0,0v0.348
		l-0.348,0.334l-5.799,6.825l-0.345,0.347l0,0l-12.272,5.452l-1.707,3.418l-1.713,9.883l1.031,4.776l3.07,5.121l1.358,1.012
		l4.094,2.737h14.328l11.938-1.707l1.71-1.706c1.698-2.043,3.4-2.727,4.429-2.727l8.187,1.365l0.68-1.365
		c-0.68-2.392-0.68-4.43,0.683-6.48l3.415-5.799V503.92v-0.339l6.138-17.733l0.339-0.343v-0.34h0.344v-0.342l10.574-8.527
		l0.675-0.679l9.212,4.089l0,0c4.778,3.412,7.164,6.142,7.164,7.849l-0.682,7.5l-3.068,4.776l-2.389,6.822v7.501l2.389,3.411
		l3.068-0.34l0.682-0.335l5.116,0.335c2.734,1.365,4.438,3.75,5.798,7.164l3.071,1.024h0.342l0,0h0.339l11.597,5.458l5.114,1.703
		l7.175-1.022l3.066-4.093l4.102-16.72l0.329-9.198v-0.682l0.683-0.347l0.34-0.335l6.478-5.456l3.758-4.778l0.347-0.342l6.817-3.067
		l4.093-2.394l5.12-2.04l-2.728-10.237l11.592,1.357l0,0v0.345l0,0l6.138,2.387l0,0v-0.337l1.709-6.484v-1.021l1.022,0.339h0.678
		l5.458,1.365h2.732l5.119-5.796h0.338l0.34-0.341h0.338l6.823-1.364l5.802-5.458l3.063-4.436v-5.458c0-2.05,1.028-3.41,3.075-4.436
		l0,0h0.686h0.34l6.479,0.685l2.722-1.703l1.034-4.777l6.813-2.047h0.349h0.335l0,0l8.531,1.026l6.825-1.708l4.088-4.093
		l2.728-5.456l-5.114-5.459v-0.342l0,0l-1.018-4.09l0,0l-1.367-6.141v-0.337l3.068-5.46c0-1.706,1.029-4.093,3.753-6.818
		l3.745-7.507v-0.343h0.343l3.417-5.457l5.114-10.229l4.773,6.819l0.34,0.341v0.341l1.71,6.822v0.34l1.025,6.824l4.774,2.048h0.336
		l0,0l0,0l1.37,0.679l0.331-0.343l4.098-7.165l2.389-6.815l1.024,0.337l1.025,0.339l9.889,3.414l4.778-3.753l0.336-0.337h0.684
		l4.776-0.343l3.411-5.801v-7.166l2.387-10.913l0.687,0.342h1.021l7.499,1.708l3.409-6.144h0.344h0.683l6.824-0.679h1.029v0.335
		l0.679,0.343l3.408,4.778v0.341l0.348,0.342v0.683l0.67,6.823l3.421,3.065l4.773-4.433l1.021,1.368
		c1.704,1.703,2.383,3.406,2.383,5.457v6.136l-2.383,6.139l1.704,2.732l3.413,3.744l14.332,2.055l0.335,0.339l0,0l0.683,0.342l0,0
		l1.024,1.018l4.093-5.798h0.346l3.407-3.411l-1.368-5.111l-3.751-21.831l9.896,4.773h0.339h0.34l4.434,5.457l2.734,2.729
		l4.086-2.729l14.325-15.687l0,0h0.344l5.112-3.755l5.796-8.186l0.343-0.683l7.85,2.048h3.749c0-3.067,0.682-5.117,1.021-6.48
		l5.799-6.822l1.712-1.024l6.815,2.385l8.187-1.02l5.459-5.801l2.731-5.116l-1.7-2.731l-4.784,2.391l-0.335-0.341l-0.349-0.343
		l-6.138-5.455l-0.346-0.345l2.399-9.208l0.671-6.823l-1.707-5.798l-4.771-1.707v-0.338l-0.34-0.341l-0.334-0.339l-4.101-8.192
		l-0.683-1.022l-5.801,6.823l-5.797,3.749l-1.361,0.687l-0.346-0.343l-0.34-0.684l-6.139-5.796v-0.342l-4.432-9.55v-0.343
		l-2.047-6.819v-0.342l0,0v-10.231l-0.686-6.138l-4.771-1.705h-0.341v-0.341l-10.906-8.53l0.67-1.018l5.114-5.46v-0.343v-0.341
		h0.684l0,0l5.795-0.676h0.343c1.707,0,3.412,1.017,4.775,2.722l4.776,3.751l5.12-4.09l3.751-5.116v-4.438l-1.369-10.911
		l-1.018-4.438l-7.509-1.359v-4.438l-6.819-8.525l-0.346-0.344l-3.406-6.14l-0.688-0.681v-0.679l0,0l7.507-9.892v-0.34l0.343-0.347
		v-0.34h0.685l3.063-0.341l3.76-3.073l4.431-13.641h0.346v-0.342l5.452-6.138v-0.34h0.347h0.334l6.148-1.708v0.683l4.089,3.412
		l1.372,0.342l2.381-10.574l-2.381-7.505l-0.34-0.341v-0.683l1.013-8.525v-0.683l4.093-4.435l2.728-4.772l0.344-4.098
		c0-2.045-1.021-5.456-3.071-10.575l0,0l0,0V93.25v-0.341l1.715-7.166c-1.364-3.069-2.4-5.454-2.4-7.16L1184.896,69.032z"/>
	<path fill="#EEB718" d="M702.936,484.485h-5.453l-1.712,3.738l3.072,3.082v0.339v0.344l1.363,4.428l0.339,0.343v1.021l-0.681,0.346
		l-7.497,3.743l-0.346,0.346l0,0h-0.339h-0.339c-5.804-0.673-8.872-2.385-9.896-4.77l-2.05-4.092l-10.225-2.047l-2.732-12.962
		c-2.05-0.342-3.754-1.368-4.774-2.73l-0.344-0.686c-1.707-2.384-3.071-3.751-5.117-4.092c-2.729-1.023-5.114-3.067-7.159-6.137
		l-4.097-2.388h-0.339l0,0l0,0l-5.457-5.458l0,0l-1.364-4.77v-0.345l10.913-15.011c0.344-1.022,0.686-1.705,0.344-2.048L647,429.907
		l-5.803,2.383h-0.344v0.342h-0.343l-15.001,1.027l-5.8,1.365l-2.053,2.042l-1.019,2.048c-1.364,1.706-3.411,2.731-6.484,2.05l0,0
		l-0.339-0.344l-5.118-3.756l-0.339-8.522c-2.728-2.049-4.433-4.092-5.117-5.799l-1.37-7.502l-3.402-4.091l-3.758-3.071
		l-1.698-1.025l6.138-7.845l1.365-4.438l-6.829-8.524h-0.336v-0.342l-3.066-6.821v-0.344l0,0l-0.687-3.412l-4.431-3.407v-0.344l0,0
		l0,0l-4.778-5.113l-6.139-1.025l-6.821,2.041l-1.028,1.368l-1.013,9.552v10.571l-1.026,0.34l-6.48,2.391l0,0v0.341l0,0
		l-6.143,0.344c-3.066,1.708-6.485,3.413-10.235,4.778l-0.678,0.337l0,0h-0.344l-11.598-2.732l-4.772,5.12
		c-1.02,1.366-3.415,2.729-6.485,3.411l-7.16,5.799l-3.765,5.802v0.338l-0.327,0.339c-2.051,3.068-3.754,5.46-5.123,6.479
		l-4.087,5.118v0.341l-0.34,0.34l-2.394,1.706c-1.707,0.683-3.406,1.024-4.773,1.024l-8.528-0.684l-2.048,3.069l-3.07,5.46
		l1.369,5.456l-0.678,13.309l2.383,4.09v0.342l1.026,3.07h4.775l8.185,1.708l10.572,0.681l4.78-0.681h0.681h0.342l9.212,3.406l0,0
		H515l4.775,3.751l10.223,3.755h0.344l6.824,4.091l16.717,15.349l7.507,3.418l3.063-1.368l3.072-5.803l-1.708-9.206
		c0-2.727,2.05-4.433,6.139-6.139l0.682-0.341l20.809,12.279l2.394-0.69l4.774-2.721h0.678l2.729,0.344l4.092-3.417l0.684-0.341
		l1.021,0.683l12.277,8.532l0.348,0.339l7.852,6.481c2.031,1.368,4.771,3.745,7.148,7.16l3.758,4.093l3.075-0.332l3.407-6.486
		l7.167,5.118h0.343h0.339l0,0l5.794,7.16l15.35,11.598l0,0l4.434,5.115l13.306-3.75l0.678,9.892l5.794,5.803l0,0v0.335l4.787,7.157
		v0.348v0.347v0.335l5.112,23.535l5.113,9.553l-6.82,17.397v1.021l-5.8,1.363v5.117l-0.343,0.339l-5.799,9.554h-0.678l-8.188,0.686
		l-8.19,6.813c1.028,1.025,2.395,1.709,4.783,2.735c3.407,1.019,3.755,3.749,2.043,8.521v0.347l-5.798,5.797h-0.335l-0.35,0.686
		h-0.344h-0.335l-16.366-2.386l-0.35,5.796l1.7,12.273l13.648,5.804v0.686l0,0l5.116-1.72l0.345-0.323l0.682-0.351l0.343,0.674
		h0.338l3.752,2.057h5.799l2.051-0.337l-2.051-6.489l0,0l0,0l-1.369-6.81v-0.347v-0.684l0.35-0.35v-0.336l2.04-2.383l0.688-0.686
		l0,0l0.343-0.337l3.745-5.12l0.339-0.346l6.146-4.77h0.339v-0.347h0.344l0,0l7.501-1.026v2.053c0,2.388,0.348,4.092,0.683,5.117
		l1.364,3.071l2.051,4.429l6.82,3.76l18.758,1.704h0.68h1.033v1.022v0.688l-0.685,6.142l5.463,5.793l4.084,1.71l0.678,0.339v0.337
		l0.347,0.682v2.384v3.419l-1.698,6.813l2.381,1.711c2.729-0.339,5.118-0.339,7.501,1.365l7.843,3.745l4.781-3.745l5.11-5.452
		l0.347-2.39l0.336-0.684l0.686-0.343l0.686-0.689v-0.682l-1.707-7.152l-0.347-3.758l-0.328-0.341v-0.339l0.328-0.343v-0.337
		l2.736-4.44l0.339-0.339l0,0l5.456-3.754h0.335h11.261l1.711-0.678l-0.343-5.804l-1.715-5.117l-3.75-6.146l-0.336-0.331v-0.347
		v-8.523v-0.347l0,0l2.043-5.115l0,0l0.344-0.338l0,0l9.209-13.3l0.339-0.347h0.336l0.694-0.335h2.042l3.405,0.335l7.85,4.431
		l5.114,1.368l0.684-2.383l-1.022-0.684v-1.03c0-2.037,1.022-3.743,3.075-5.446l6.131-4.446l0.346-0.329l0,0v-0.343
		c3.415-1.03,5.454-1.704,6.819-1.704l5.459-0.682h0.682l0,0l3.419,0.682l2.382-8.531v-5.799c0-3.758,0-6.136,1.025-6.815
		l2.389-4.435l-3.072-4.105l-4.093-2.719l-8.531-2.392c-1.7,0-4.771-1.7-9.888-6.142l-5.12-2.389h-0.336l-0.347-0.343l-6.137-7.505
		h-5.803l-0.338-0.338h-0.345l-5.116-2.726l-3.067,4.091l-0.679,16.034l1.019,6.143h2.389l0.34,0.341l4.774,1.365v0.337v0.347
		l2.388,5.792h0.349v0.343l0,0v0.337l-1.368,10.577v0.684v0.335l-0.343,0.345c-1.695,1.024-3.063,1.704-4.771,2.73l-0.682,0.339
		l-0.348-0.339h-0.34l-2.389-0.678l-5.46,2.037h-0.335l0.335,1.033l0.351,0.332l1.021,9.213c0,1.36-0.68,2.054-2.05,2.385h-4.088
		c-2.052-0.331-3.076-1.024-4.097-2.043l-4.094-3.078l-0.339-0.333h-0.346v-0.354l-2.382-5.789c-0.688-0.684-2.386-1.7-5.8-2.725
		h-0.336h-0.352l-4.773-3.412h-0.678v-0.682l0,0l-1.365-5.799l0.683-4.432h0.335v-0.347l0,0l2.054-2.386v-1.706l-2.054-6.137
		l-4.767-4.437v-0.688l-1.368-13.976l-3.405-3.412h-0.349l-0.338-0.345l0,0l-2.729-6.473l-12.281-1.371
		c-3.063-1.019-5.118-3.066-6.478-5.795h-5.46c-2.048-0.688-4.097-2.045-6.481-4.439l-0.678-0.682
		c-1.364-1.369-2.738-3.408-4.092-6.145l0,0l-0.356-0.335l-1.013-5.456l0,0v-0.344v-0.338l0,0l2.049-10.574v-0.339l2.047-4.443
		v-0.339v-0.335h0.336l12.97-5.463l5.111-6.136l1.02-5.112l-0.681-3.757c-2.04-4.43-3.412-7.16-3.412-8.869l-2.731,0.345
		l-4.778-0.345c-1.01,0.345-3.754,3.414-7.497,7.853l-5.797,5.456h-0.347l-0.344,0.338c-4.426,1.022-7.498,1.708-9.206,1.022
		L702.936,484.485z"/>
	<path fill="#EEB718" d="M793.679,487.552l-6.147,17.049v11.251v0.348l-3.41,5.808l-0.687,4.087
		c0.687,2.391-0.343,4.429-2.729,5.798l-0.683,0.343h-0.34l-0.34-0.343l-8.529-1.021l-4.432,4.098l-12.963,2.045l0,0h-5.456
		l3.417,2.384l12.27,1.363h0.678h0.69l0.339,0.349v0.335l3.069,7.507l3.415,2.383c1.018,1.365,1.709,3.42,1.709,7.161l0.335,9.214
		l4.093,3.755h0.344v0.337h0.338l2.045,6.818v3.761l-2.383,3.407l-0.683,3.069l1.021,3.406l4.095,2.733
		c4.439,1.704,6.816,2.732,7.842,4.437l2.395,5.117c2.719,1.355,4.088,2.727,4.771,4.094l3.079,1.024h0.336l-1.373-7.504
		c-0.336-1.715-0.336-3.417,0.342-4.101c0.695-1.017,1.369-1.698,2.729-2.055l5.12-1.696l0,0l0.339-0.335h0.34l0.339,0.335
		l2.389,0.684l3.075-1.702v-0.674l1.021-8.536l-2.05-4.098l-2.729-1.367l-3.41-0.335h-0.682l-0.683-0.339l-1.364-8.873l0.344-17.4
		l0.683-0.677l5.112-7.162l7.508,4.094h4.422l3.423-22.179c-1.027-2.376-2.049-4.092-4.091-5.109l-2.047-0.347v0.347h-1.031
		l-5.456,1.018l-0.337-0.682l-0.34-0.336l-3.757-4.786v-0.331l-0.339-0.338v-8.533l1.363-4.782l1.364-2.04
		c0-1.372,0.34-2.728,1.708-4.432l1.367-1.71l0.339-5.792l-5.117-4.78l-6.824-3.412L793.679,487.552z"/>
	<path fill="#EEB718" d="M592.424,648.893l-7.849-2.378l-8.185-1.038l-2.725,3.073l-0.682,5.801l0.34,0.341l2.381,8.866l0.343,6.819
		v2.045h-4.093l1.711,8.185l-6.481,2.397l-2.731,5.111l3.413,2.729l0.683,0.339l0,0l11.941,9.552l0.341,0.349h0.338v0.341v0.335
		l1.695,8.529l5.469,7.846c1.356,2.043,3.063,4.089,6.139,6.815h0.335l0.347,0.341v0.339l-0.347,0.691v7.499
		c1.032,2.041,1.373,6.479,1.373,12.962c3.063,4.436,4.435,7.511,4.435,9.549c0,1.363,1.019,4.102,2.725,7.846l0,0v0.347l0,0
		c0.682,4.768,0.344,8.866-0.679,12.269c-1.027,2.403,0.338,6.825,4.09,12.973l0.339,0.339l0.342,0.682l-0.342,0.682l-5.457,11.936
		c1.027,2.732,1.366,4.774,1.366,6.142l-1.366,11.262c-0.683,3.748-0.683,5.791,1.027,6.475l2.04,1.367
		c3.074,1.354,4.096,3.069,4.096,4.774l-0.344,5.8l1.705,0.682l0.342,0.337l1.028-1.019c1.019-1.021,2.038-2.384,2.386-4.09
		l0.683-1.032l0.343-0.678c1.364-0.685,2.047-1.705,3.066-3.07c0.336-2.043,0.336-4.094-0.346-6.478l-0.675-1.703l1.702-0.349
		c5.461-1.361,8.528-1.017,9.557,1.365l2.729,6.813v0.351v0.335l1.354,11.267l4.441,2.382h0.345h0.33l2.736,2.384l2.732-3.065
		l3.063-2.386h1.029c2.388,0.686,3.752,2.386,4.431,4.775l1.357,8.87l0.351,1.365l9.205,19.788l3.754,3.741l0.342,0.343v0.343
		l1.7,8.188l0,0l0.689,7.846l0.344,0.686c2.385-3.422,4.428-5.122,5.787-4.438c1.369,0.339,1.712,1.017,1.712,2.388v2.051v6.134
		v1.71c1.703,0.343,3.07,0,3.405-1.028l3.413-4.772l3.752-3.749c2.389-1.716,4.778-3.074,7.507-3.074h0.339l7.164,1.709l2.054-1.028
		l3.74-4.774l-0.678-7.503c-2.382-4.09-3.414-7.507-2.728-9.891l1.029-6.14v-0.684l0.33-0.689l0,0l6.485-3.749h0.348l0,0
		l4.767-3.068l5.466-7.844l0.673-5.802l-6.139-14.322l13.645,6.134v-5.791l0,0v-0.343l5.125-4.433l9.892-2.728h0.684l5.792,12.612
		v0.682l-0.688,4.775l0.688,4.436c0.682,2.051,2.055,3.079,3.065,3.079c1.369,0,2.737-1.028,4.098-2.736l0.345-0.682l0,0h0.338
		l8.188-2.733l0,0h0.339c4.439,0,6.482,1.033,7.503,3.072l0.685,9.209v0.345l1.708,0.339l3.402,1.028l5.122-0.343l8.523-2.396
		l5.122-4.426l0.339-3.757l-2.391-2.725l-8.866-3.068l0,0l-0.686-0.347l0,0v-0.335l-10.229-10.239l1.018-0.682l5.123-4.426
		l0.344-0.349l0,0l5.112-2.045l0,0h1.019l6.829,1.363h0.337l0.344,0.347v-2.73l-3.075-5.123l-4.775-2.38l-6.473-9.544l0,0
		l-0.346-0.349v-0.335l-3.068-11.26v-8.525l5.464-5.125h8.186l19.097,1.712l8.866-12.625v-0.68h0.68l7.162-3.754l3.754-7.505
		l0.344-0.337l8.532-7.168l4.092-7.511v-0.335h0.335v-0.334l0,0l3.409-3.417l4.099-6.825l1.366-10.572v-1.019l0.336-0.347
		l5.465-3.75l1.369-1.359l-8.193-1.367l-13.64,0.686l-0.344-0.343l-5.122-4.098h-0.679v-0.339l0,0l-2.736-4.093l-0.679,0.347
		l-0.342,0.676c-0.683,1.017-2.389,1.363-4.431,1.363l-2.048,1.024c-0.685,0.34-1.028,0.683-2.049,0.34
		c-0.679,0-1.026-1.027-1.703-2.728c-0.339-1.704-1.019-3.404-3.066-5.11l-0.35-0.347v-0.345h-0.338l-1.708-4.432H815.5
		l-5.125,3.408l-0.335,0.335h-0.339l-11.938,2.4h-0.684l-0.686-0.353l-7.838-5.452l0,0l-0.35-0.339v-0.341h-0.332l-2.046-4.103
		l-5.804,6.151c-4.096,4.769-7.164,6.136-9.209,4.769l-7.842-4.087l-5.456-0.682l-0.688,0.349l-5.114-3.759l-0.333-0.345
		l-1.029-0.337l2.385-9.211v-3.074l-3.07-1.365h-0.34l-7.168-7.842l0.343-5.803l-17.732-1.696l-6.82-3.763
		c-1.712-1.017-3.08-3.067-4.094-6.473l-1.021-2.394l-1.368-5.113l-2.388,0.339l-5.461,4.441l-6.48,7.848l1.365,5.788l2.044,7.511
		v0.337h0.339l-0.339,0.343v0.339c-0.681,2.05-2.724,3.068-5.794,3.068h-6.821l-4.092-2.045l-5.121,2.045l-1.014,0.347l-0.685-0.347
		l-0.688,4.785l-0.338,0.681v1.019h-1.03l-8.521-2.733c0,2.733,0.339,4.782,1.699,7.17c1.034,2.384,1.368,4.099,0.339,6.136
		l-1.013,2.721c-1.025,1.034-4.089,1.381-8.531,1.034h-5.796l-0.35,9.54l-7.496-2.721h-0.343l-0.339-0.345l-3.758-7.16l-8.18-2.725
		l-2.047-4.432l-3.071,2.378h-0.342l-5.121,1.027h-1.365l-2.725-6.14l-2.728-3.751l-0.339-0.335
		c-2.728-3.419-4.094-6.484-4.782-8.194c0-0.342-0.678-1.023-2.382-1.362l-1.368-0.343c-2.385-1.021-4.088-3.06-5.113-6.133
		l-1.364-5.803v-4.778l-2.39-4.437l-4.091,1.371h-0.348h-0.331H592.424L592.424,648.893z"/>
	<path fill="#EEB718" d="M556.946,962.008l-1.365,4.447c2.051,0,4.782-1.381,7.511-3.418l0.339-0.343h0.682l13.642-1.71l8.871-4.432
		l3.41,4.771l0.678,0.348l-4.088,6.474l4.77,4.78v0.337v1.03l-3.405,14.322l8.871,6.488l16.026,0.674l-2.39,3.073
		c-10.227,12.62-15.006,20.132-14.658,22.517l6.132,1.359c8.186,0.68,12.967,3.067,14.67,6.139
		c2.046,4.095,4.088,8.193,5.801,12.955l9.204,5.125l5.796,1.026l11.95-10.237l6.139,9.209v0.351l0,0l0.339,0.333l2.046,8.525
		l5.114,1.021l0,0l7.847,2.736l2.045-0.688v-0.343l-1.36-8.866l-0.343-0.335l-4.436-20.128v-0.685l2.729-13.98l0.682,0.331h1.025
		l9.205,0.682l11.6-8.512l1.02,0.684c6.142,4.769,10.235,8.521,12.282,11.244c2.046-0.684,5.792-4.429,10.912-10.229l0.343-0.333
		l0.683-0.684l17.057,4.427l7.497-6.143l0.344-0.337l0.343-0.345h0.351l0.335,0.345l7.165,1.371l23.197-20.467l7.155,2.035l0,0
		l0.338,0.351l0.352,0.329l0.336,0.354l1.703,3.058l1.712-2.037h0.339v-0.345h0.343l6.816-3.747l5.117-4.78l-1.368-10.576
		l-1.014-1.367l-6.482,2.732l0,0c-2.053,0.68-3.753,1.365-6.143,1.365h-7.511c-2.385-0.335-3.749-1.03-4.766-2.394l-0.688-10.913
		c-2.384-1.36-3.409-2.042-4.435-2.042l-1.707,0.682l-2.385,1.36l-4.775,1.021h-1.362l-0.336-0.682l-2.741-4.773l-0.336-4.427l0,0
		l2.732-12.963l0,0h0.345v-0.343l3.067-6.49l-9.557-8.52l-0.34-0.339l-0.339-0.343v-9.881l0.339-0.349l5.459-15.689l-3.412-8.531
		l-3.063-0.691l-3.757,0.349l-3.755,5.803l-4.777-3.417l-4.773-2.734l-3.75-9.54l0,0l0,0l-1.364-6.825v-0.68l-0.344-0.341
		l1.025-0.682l4.433-6.136l1.028-0.689l0,0h0.334l3.411-0.684l3.752-1.028l17.734-0.682h0.348l2.385,1.028l0.687,0.343l2.729,1.021
		l4.772-2.047l4.095-3.076l2.049-3.402l0.345-1.708l-0.345-7.507l-3.758-0.68l-7.158,2.394c-2.045,2.384-4.432,4.086-6.825,4.086
		c-2.386,0-4.432-2.047-6.482-5.802l0,0h-0.339v-0.335l-0.342-4.78v-0.684l0.342-4.427l-3.752-9.215l-7.164,2.063l-3.071,2.709
		l1.024,10.235l-11.256-5.11l2.734,6.144l0.34,0.335v0.682l-1.035,6.826v0.668h-0.331l-6.481,9.22l0,0l-10.574,6.485l-1.029,6.142
		c-0.334,1.017,1.029,3.754,2.736,7.156l0.332,0.339v0.345l0.686,8.87v1.024l-0.335,0.343l-4.097,5.456l0,0l-0.339,0.331h-0.347
		l-3.067,2.055h-0.34h-0.343h-0.336h-0.346l-7.841-1.704c-1.37,0-3.067,0.688-4.778,2.047l-3.41,3.758l-2.73,3.406
		c-1.705,3.063-4.094,3.745-7.839,3.063c-2.397-0.33-3.081-2.721-2.397-5.79v-2.395l-0.336-2.386l-1.36,1.704
		c-1.021,1.364-2.051,1.711-3.418,1.711c-1.361-0.347-2.377-1.711-3.071-4.095v-0.337l-0.678-7.84l-1.704-7.509l-3.414-3.414l0,0
		l-0.339-0.343l-7.157-16.373l-0.346-0.347l-2.042-4.771v-0.341h-0.343v-0.343l-1.367-8.862l-1.022-1.377l-1.363,1.024
		c-2.385,2.734-4.095,4.437-4.781,4.437c-1.018,0-2.721-1.359-5.449-3.406l-5.117-2.394l-0.686-0.335l-0.335-0.343v-0.345
		l-0.349-0.682l-0.335-6.815l0,0l-1.028-5.121l-2.728-6.825h-2.729c0.336,2.731,0,5.109-0.683,6.825
		c-0.681,2.054-2.046,3.415-4.092,5.121c-0.683,2.384-1.707,4.082-3.071,5.452c-2.054,2.045-3.757,2.045-5.801,0.682l-1.023-0.335
		c-2.043-0.682-2.39-3.08-2.043-7.505v-1.709l-4.432-2.736c-1.712-0.686-2.74-2.709-3.075-5.795l1.705-15.346l-0.684-2.385
		l-5.46,6.14l-3.746,2.726l-1.021,2.38c1.357,3.083,2.052,5.47,2.052,7.174c0,3.41-1.707,6.137-4.783,7.157l-6.143,2.395
		l-1.704,1.022l-0.338,2.382v9.554c0.338,3.067,0.687,4.776,1.703,4.776c2.049,1.019,4.439,1.019,6.481-0.689l2.047-1.02
		l6.482,15.014v0.342l0,0v0.682c-2.389,26.949-4.776,42.289-7.843,46.386c-1.367,1.365-2.393,2.047-4.432,2.382
		c-2.397,0-4.101-0.335-6.482-1.704c-8.866,17.742-14.674,26.957-17.396,28.316h0.342c-1.371,0.341-2.046,4.782-1.71,12.622
		l2.046,1.7l0.682,0.691l0.688,0.672L556.946,962.008z"/>
	<path fill="#EEB718" d="M857.453,806.132l-2.381-1.019l-2.738,1.701l-1.697,3.073c-1.373,3.067-2.729,4.776-5.125,4.776
		c-1.365,0-3.061-1.031-4.095-2.048l-0.335-0.345l-0.346-0.337l0,0l-1.018-3.406v-0.353l-0.35-4.432l-2.039-0.343l-0.345,0.343
		l-1.025,3.415v4.775l-0.334,0.337l-0.344,0.345l-4.097,5.456l-0.684,0.684h-0.676l-8.184-0.684h-0.688v0.331l0,0v0.353
		l-2.729,3.753l1.026,2.382h0.339l-2.389,3.756h-7.504v-1.369l-0.686-0.682l-1.019-0.682l-1.367,2.392l-0.34,1.017h-5.111
		l-0.336-0.335l-3.079-2.392l-0.339-0.682v-0.337h-0.344v-0.688l-5.46-1.018l-4.088,1.706l-2.385,1.7l6.813,7.85l8.882,2.725
		l0.336,0.347l0,0l0.339,0.335l4.431,4.101l-1.698,6.817l0,0v1.012h-0.344l-5.799,4.788v0.347h-0.344l-9.557,2.728h-0.332
		L782.409,859l0,0h-0.328l0,0h-0.35l-3.753-1.369l-2.05-0.335l-2.042,3.407h-0.336v0.345l-4.439,3.073h-0.339l0,0l-6.144,2.728
		h-0.338l-7.162-2.389l-15.695,0.682l-3.41,1.026l-0.343,0.342h-3.063l-3.76,5.114l0.688,5.799l3.407,7.846l3.748,2.039h0.344v0.351
		l1.362,1.021l2.393-3.41l0.345-0.341l0.336-0.343h0.334l5.131-0.683h0.677v0.346l5.115,1.369l5.121,11.595h-0.342v0.337
		l-2.052,6.477l0,0l-1.703,4.098v0.346l-2.382,5.786v7.166l4.085,4.094h0.338l5.461,4.78l0.678,0.333l0.348,0.343l-4.093,9.558
		l-1.024,4.432l1.367-0.684h0.335l3.415-1.366l6.136-3.402h0.346l6.82,1.021h0.335l0,0l10.234,4.083h11.26l3.068-4.083l0.351-0.353
		l0.335-0.329l5.796-2.73l5.455-4.784l0.685-0.337l0,0l4.092-1.367l4.439-3.406l5.108-6.829l7.163,2.738l1.026,0.343v0.339
		l0.343,0.339c1.023,2.724,2.048,4.091,3.063,4.436l4.442-0.684h1.025l2.385,0.684h0.336v0.343l5.799,2.041h1.714l0.341-1.359
		l0.684-2.049v-0.339l0.334-0.349l0.344-0.342v-0.336l2.045-1.362l0.34-0.341l3.753-3.071h0.348l0.339-0.347h0.675l3.413,0.347
		c0-2.047,1.025-4.097,3.07-6.146c2.383-1.7,4.094-2.719,5.117-2.378l2.047-1.365h0.343v-0.347l1.704-1.707v-0.33h0.339l0.344-0.352
		h0.339l5.451-1.359h3.078l1.365-1.024l1.022-2.051l0,0l1.701-3.404l-0.685-0.347c-2.041-2.385-3.406-5.109-4.089-8.858
		l-0.344-0.347l0,0h0.344v-0.338l1.368-7.506c0-2.393,0.68-4.099,2.384-5.799l-0.68-6.142c-0.345-0.682-1.024-1.363-2.729-1.702
		l-10.914,4.436l0.688-11.263c0.338-1.71,3.74-4.77,10.227-8.525l-3.069-11.938c-0.682-4.099,0.331-7.17,3.069-9.897l-0.688-2.051
		h-3.413l-1.018,0.347l-1.699,4.778c-1.371,1.706-2.74,2.725-4.097,2.725h-0.685l-3.408-2.382H872.8h-0.341v-0.343v-0.682
		l-1.028-2.395l-0.331-3.412v-0.335l-0.339,0.688l-0.344,1.009h-6.134l-0.689-1.361l-1.021-3.745v-5.119l-3.759-6.475v-5.457
		L857.453,806.132z"/>
	<path fill="#EEB718" d="M926.69,894.479l0.346,0.343l0.685,0.682l-4.436,6.825c-1.711,2.033-4.102,3.406-6.824,3.406h-0.684
		l-3.405-2.049l-3.413,0.341l-6.821,5.123c-1.704,0.682-3.749-1.025-6.821-5.123l-2.05,4.441h-0.333l0,0l-0.35,0.332l0,0
		l-2.385,2.389h-4.435l-4.429,1.371l-5.464,4.094h-1.704l-2.053,1.355c-1.695,1.703-2.383,3.066-1.352,4.434l2.383,3.414
		l-9.552-1.022l-5.117,4.095l-0.684,1.7v0.343l-1.026,2.732l-0.342,0.333l-0.334,0.349h-4.779l-6.143-2.39l-2.042-0.337
		l-4.782,0.672c-2.04,0-4.432-2.384-6.478-6.137l-4.092-1.701l-3.413,5.117l0,0h-0.341l-4.771,4.094h-0.35v0.333h-0.676l-3.75,1.03
		l-5.464,4.778l0,0l-5.795,2.723l-4.094,5.454h-13.64l0,0l-10.574-4.086l-5.8-0.684l-5.117,2.727h-0.344l0,0l-3.404,1.373
		c-1.705,0.67-3.072,1.698-4.102,2.041l-0.678,1.704v4.095l1.707,2.727l8.184-2.727c1.706,0,4.094,1.024,7.16,2.727l0.69,0.337
		l0.344,0.345l0.335,11.594l1.707,0.345h7.162l4.439-1.024l0.678-0.683c2.725-1.367,5.119-2.376,8.183-2.727l1.368-0.341
		l0.682,1.022l2.043,4.087v0.351l1.029,11.26v1.019l-6.15,6.486h-0.335v0.333l-7.16,3.423l-2.386,2.719l1.017,2.051l14.679,1.352
		l0.336,0.351l0,0l0.339,0.333l5.794,3.417l12.961-0.347v1.712l0.686,6.481v0.681h0.347l-5.804,5.804
		c-0.683,7.495,0.683,11.937,3.754,12.951l10.91,5.809l8.53,5.798l7.162-3.412l0.68-0.353l0.684-0.329l0.346,0.329l10.914,8.202
		l1.706,0.68l2.733-3.413l0.678-0.684l0.344-0.345h0.347h0.329l6.487,1.028l1.36-11.26l8.189,14.671l6.815,0.343l1.027,0.335h0.683
		v0.682v4.433l2.723-0.68l11.261-15.008l4.769,7.16v-2.382l0,0v-0.354v-0.327l3.42-6.821l3.063-5.116h8.527l1.367-9.556h1.023
		l0.676,0.343l6.486,1.026l0.68-3.417l-2.385-5.455v-0.682l1.373-3.744v-0.682l0.332-0.358h0.342v-0.325l17.737-9.556l-0.681-9.215
		l0,0v-0.325l3.41-6.837l0.673-1.361l0,0l5.468-12.626l0.339-0.329l0,0l4.436-4.442l2.726-5.109v-0.693l0,0l2.389-4.093
		l-2.045-5.114v-0.331h-0.344v-5.462h-2.726l-5.117,2.385c-2.392,1.704-5.798,1.022-10.233-1.707
		c-1.702-1.357-1.702-4.779-0.682-9.887l-2.726-0.351l-1.364,1.706c-3.074,3.415-5.461,5.47-6.142,5.47
		c-0.682,0-1.025,0-1.709-0.343c-0.343-1.026-1.021-2.732-1.021-5.46c0-3.075,0-5.118,1.021-5.8c0.684-1.03,1.365-1.372,2.036-0.684
		l6.493-11.944l1.699-4.425l1.028-5.117l-3.753-3.067c-1.021-1.024-1.361-3.413-0.679-6.825v-2.055c0-1.015-0.683-2.38-2.049-3.401
		h-0.683l-0.348,1.021c-1.008,2.732-3.406,4.096-7.155,3.071C931.127,893.788,929.079,893.788,926.69,894.479L926.69,894.479z"/>
	<path fill="#EEB718" d="M906.231,736.213l-2.395-5.461l-3.751-5.462L896,724.27h-0.348v-0.335h-0.335l-3.418-1.712l0,0h-0.674
		l-1.364,0.334l-4.443,0.683h-0.332l-0.682-0.341l-4.439-1.695v-0.34h-0.337v-0.344l0,0l-3.408-3.412l-3.757-3.753l-3.411-2.046
		l-3.754,3.419l-4.777,3.404l-1.357,10.226v0.347l0,0l-4.439,7.509v0.684h-0.333l-3.419,3.401l-4.091,7.852l0,0l-0.346,0.674
		c-3.064,2.394-5.798,4.783-8.526,6.825l-3.407,6.146c-0.687,1.702-3.416,3.746-8.529,5.805l-3.422,5.789l0,0l-5.792,7.85h-0.342
		v0.339h-0.672l-27.289-1.713l-3.07,3.07v5.804l2.719,11.253l5.809,8.185l4.773,2.73v0.345h0.339l0,0
		c2.731,3.413,4.093,5.805,4.093,7.503v4.431l-1.703,1.704l1.021,0.688h1.368l2.041-4.091h0.683l5.461,1.698l0.339,1.704h2.73l0,0
		l-0.681-2.033l-0.347-0.686l3.753-5.804c0.682-1.702,2.386-2.384,4.767-1.702l6.15,0.338l3.414-4.437v-4.089l1.356-4.437v-0.333
		l0.343-0.347l0.337-0.337l2.396-1.377v-0.339h0.34l0.345,0.339l5.12,0.684v0.693l1.02,4.09v2.046l0.675,3.069l1.366,0.337
		l1.706-2.39v-0.341l2.725-3.75l0.346-0.684l3.76-1.692h0.342l0.333-0.349l4.439,1.359h0.335l0.687,0.343l2.39,4.772v4.781
		l3.411,6.469l0,0v0.691v4.776l1.016,2.043h1.029l1.362-1.705l0.341-0.677l4.092,2.382h0.344h0.336v0.684v0.343l1.368,5.799
		l1.707,1.03l0.348-0.682l1.699-4.445v-0.335l0.339-0.684h0.338h0.348l2.386-1.373h0.342v-0.337h3.075l-0.689-1.705v-0.677
		l-1.712-16.038l-6.475-10.566l-12.28-14.332l-0.344-0.343l-0.669-9.199l-4.101-7.17v-0.337l-0.345-0.347l0,0l0.345-0.682l2.05-8.87
		h0.683h0.679l21.49-1.357l11.597-6.149l0,0l0.339-0.333c4.093-1.363,6.815-3.072,7.51-4.78
		C905.543,742,906.231,739.622,906.231,736.213z"/>
	<path fill="#EEB718" d="M831.54,528.823l-2.06-0.339l-3.407,20.81l5.795,6.823l5.463,2.38l0,0h0.334l0.343,0.343l7.164,5.803
		l9.9,2.389h0.334l5.112,3.41h0.348l0,0v0.676l3.749,5.467l0.682,0.682l-0.344,0.682l-3.401,5.453
		c-0.686,0.684-0.686,2.389-0.686,5.115h0.335v6.482l-0.335,0.335l0,0l-3.07,10.237l-0.344,1.706h-0.683l-1.02-0.354l-4.437-1.017
		l-5.802,0.349l-5.112,1.706l-5.799,4.771l-1.369,1.363l7.503,3.749l-0.682,1.368c-0.336,1.7-2.046,3.416-4.771,4.437l-4.781,0.341
		l-7.851-3.077l0,0l0,0l-7.152-4.083h-3.07l-8.523,12.275l-1.716,4.088v7.17l3.418,5.803v0.351l0,0l0,0l2.049,5.445v0.683
		l0.34,7.845v1.025l0.339,0.684l-5.459,1.022h-10.231l-4.771,3.077l-2.045,3.401l0.334,0.34l2.043,10.232h0.351v4.096l2.385,4.778
		l7.165,4.773l10.569-2.39l5.113-3.41l0.69-0.346h4.775l2.729,6.49c1.701,1.697,3.064,3.407,3.749,5.446l2.39-0.339h0.683h0.678
		l0.348-0.684l4.773-3.752l4.428,7.842l4.786,3.08h6.821l5.113-0.688h1.018l12.283,1.71h0.341v0.347l5.111,3.065l0,0l0,0v0.341
		l4.44,3.413v0.327l3.069,3.416l3.403,1.363l5.465-0.684v-7.154l-2.728-4.771h-0.343v-0.351l-2.047-8.872l4.773-4.769l0.344-0.349
		h0.344l4.091-0.674h4.429l1.369-1.702l-2.725-3.751l-9.896-6.48l-2.39-3.758l-0.339-0.341l-0.348-0.341l0.348-0.682l2.729-5.117
		l0.684,0.682L896,671.74l18.076-0.676l0.336,0.341h0.347l5.117,1.698l3.411-3.066l-1.713-10.57l-6.476-4.092
		c-5.458-3.067-7.169-10.578-6.139-22.863l-5.456-2.725l-0.688-0.335h-0.677v-0.686v-0.343l-1.024-8.873l7.511-34.791
		c-3.082-10.223-4.788-17.049-4.788-20.464l-0.676-10.228l0.676-11.26v-0.684l0.694-0.681l0,0l6.818-5.116v-5.457
		c0-1.36-0.689-3.411-2.39-6.143l-4.429-4.771h-0.694v-1.029l-0.676-8.189v-0.335l-0.346-0.343l0.688-0.331v-0.352l8.868-11.252
		v-4.773l-2.731-5.129v-0.328l-0.339-0.682l4.431-5.455v-0.349h0.345l4.772-3.75l-0.678-4.44h-2.394l-3.747-0.676l-2.048,8.188
		l-1.023-0.337l-8.873-3.418l-5.452-1.025l2.048,8.534l-7.504,2.389l-10.913,5.799l-3.414,4.428l0,0v0.344h-0.347l-5.791,5.109
		l-1.024,8.185v0.687l-3.073,11.604h0.34l-1.359,5.456v0.338l0,0l-0.347,0.34l-3.751,5.125h-0.335v0.331l-0.346,0.351h-0.339
		l-8.189,1.022l0,0v0.335l-0.346-0.335l0,0l-12.276-4.1l-0.336-0.34L831.54,528.823z"/>
	<path fill="#EEB718" d="M990.817,437.065l1.37-1.703l-2.391-5.456l-2.39-2.728l-2.728,4.437v0.334l0,0l0,0l-4.432,5.117l0,0
		l-0.339,0.346h-0.686l-8.185,2.391h-0.682l-7.852-1.366l-4.435,1.366l-1.018,3.748l0,0l-0.347,0.684l-3.754,2.384l-0.683,0.342
		h-0.683l-6.815-0.681l-0.339,0.681v6.828l-0.34,0.336l-3.757,4.779l0,0v0.336h-0.348l-6.478,6.484h-0.342l-0.336,0.337
		l-6.828,1.372l-4.433,4.773l1.026,5.797v1.364l-1.026,0.337l-5.112,4.781l-2.73,3.411l2.047,4.432v0.345v0.333v6.484l0,0v0.339
		l-3.748,5.458v0.346l-5.113,5.792l0.674,6.829l4.44,4.082v0.354l0,0c2.046,3.405,3.066,6.133,3.066,8.517v7.518h-0.339
		l-0.347,0.335l-6.821,5.121l-0.674,10.231l0.674,10.231c0,3.407,1.369,9.893,4.781,19.441v0.338v0.682l-7.506,34.799l0.677,6.818
		l5.117,2.383l8.189-8.192l0,0h0.335l26.274-10.224l6.813-6.14l0.683-0.684l0.348,0.343h0.673l15.014,1.363
		c2.051,0,6.487-1.706,12.964-4.439v-7.153l0.339-0.35h0.344l4.096-3.747l-1.03-4.438v-0.339v-0.346v-0.676l0.349-0.347
		c1.359-1.355,1.359-2.719,0.342-3.751c-1.023-2.039-0.69-4.768,1.018-7.837l1.709-2.39l0,0l-0.339-4.78l-5.119-6.14
		c-2.382-1.702-2.736-4.084-1.368-6.474c0.683-2.05,1.712-4.097,3.409-5.801l1.366-5.803l0,0l0,0l3.752-8.188l1.032-3.751
		l5.451-10.233l-3.746-6.482l-10.582-6.474h-0.684v-0.685l0,0l-2.042-5.458v-0.345v-0.687l1.029-9.198l0,0v-0.351l2.382-6.81
		c-0.34-2.396,0-4.097,1.02-5.466c0.688-0.682,1.711-1.362,2.729-1.362l6.491-1.021l1.693-3.753l1.709-11.258l-1.364-4.09
		l-5.797-1.362h-0.343l0,0l-6.824-3.415l-0.339-0.34v-0.682l-0.344-0.342l-0.339-8.187v-0.684v-1.022L990.817,437.065z"/>
	<path fill="#EEB718" d="M1008.899,800.328l0.343-0.337h-0.68v-0.684l-2.73-5.109l-0.344-0.347v-0.684l0.683-8.183
		c0-1.022-1.021-2.051-3.077-3.408h-2.046l-3.405,4.088H997.3l0,0l-8.522,4.097l-1.371-5.799v-0.686l0.683-2.731l-0.683-3.402
		l-1.017-0.353l-1.369,2.738h-0.343v0.335l-10.573,9.213l-0.337,0.685h-0.347h-0.679h-0.679l-3.076-1.366l-0.342-0.345l-3.401-3.067
		l-5.463-2.051l0,0l-0.339-0.337l-3.409-2.387l-11.261-2.384l0,0h-0.339l-7.507-3.753v0.343l-5.8-2.731L923.626,771l-2.734,0.345
		l2.394,12.62h-1.024l-7.503,0.678h-4.098h-0.338l0,0l-4.09-2.721l-6.826,3.063l-6.14,8.185l-5.455,14.665l1.71,16.036l2.378,9.207
		c0.35,1.019,0.35,1.371,0,1.702l-1.018,0.349c-1.704,1.022-2.388,3.406-2.051,6.823l3.418,13.98l-1.024,0.682
		c-6.139,3.405-9.212,6.136-9.557,7.507l-0.678,4.776l5.795-2.388l0.344-0.34h0.337c4.097,0,6.479,1.362,6.822,4.774l1.028,7.505
		l-0.344,1.017l-0.685,0.684c-1.021,1.024-1.704,2.054-1.704,3.417l-1.021,7.842c0.334,2.732,1.37,4.766,2.725,5.804l7.173,8.525
		l6.469-5.124l5.117-0.681h0.346l0.341,0.681l3.415,1.03c1.023,0,2.035-0.349,3.063-1.368l3.075-4.431l-0.686-2.734
		c0.686-1.021,1.707-1.702,3.074-2.387h8.184c1.365,0.685,2.386,0.347,2.386-0.337c1.027-2.397,2.036-3.41,3.067-4.092
		c1.025,0,2.729,0.331,3.757,1.365c2.391,2.041,4.095,3.748,4.095,6.13l-0.69,6.143l1.371,1.027c2.048,1.71,3.41,3.402,3.41,4.777
		l-1.364,6.134c-1.024,3.406-2.046,5.803-3.417,6.484v-0.346l-5.114,10.92l1.71,0.682l8.186,0.337l1.699,0.682l-0.682,1.367
		c-1.019,3.411-1.356,5.793-1.019,7.511c2.721,1.704,4.437,2.719,5.453,1.704l4.782-2.047l2.384-1.024h4.436l4.433-4.782v-5.796
		c-0.333-2.046,0-3.411,0.679-4.432c1.379-1.021,4.104-1.021,8.195,1.363l8.181,5.117c2.731,2.049,4.776,2.721,6.14,2.721v-0.335
		c0.683-1.367,0-4.092-1.704-7.503l-4.436-6.82v-0.682h0.343l0.345-0.683c4.43-6.145,9.205-8.187,14.665-6.145l12.618,5.794
		l5.112-3.4h0.347v-0.341v-0.347l-0.678-0.684l0.331-0.335l0.347-0.688c4.096-6.818,5.452-11.936,4.096-14.66
		c-1.028-2.394-2.731-3.416-4.096-3.416h-1.029l-0.683-3.409h0.683c2.394-1.021,3.754-2.055,4.097-3.41l-1.029-1.704l-5.448-5.117
		l0,0v-0.343l-2.731-7.503c-1.026-5.799-1.708-10.919-1.026-15.691v-3.406l-3.406,3.063l-3.074,3.402l-1.015-14.319l0,0v-0.684
		h0.336c7.503-10.914,12.614-17.39,14.327-19.098l-3.41-10.238c-1.026-5.104-1.708-8.185-1.708-9.548l-6.142-2.725L1008.899,800.328
		z"/>
	<path fill="#EEB718" d="M890.199,673.797l-0.34,1.355l1.704,2.055l8.87,6.136l0,0v0.337h0.338l5.46,6.144l-0.688,0.676
		l-3.405,4.092l-0.343,0.343l-0.336,0.684h-5.807l-3.403,0.34l-2.39,2.397l1.022,3.069v0.335l0.343,3.407l3.063,4.442v0.339v9.554
		l2.732,1.019l4.774,1.364h0.344l0,0l0.338,0.339l0.339,0.334l4.437,6.149v0.339l0,0l2.39,6.138v0.345l0,0v4.097
		c-0.34,2.376-1.017,4.427-1.712,5.794c-1.697,2.396-4.768,4.43-9.541,6.479l-11.603,6.833h-0.331l-21.157,1.352l-1.358,5.119
		l3.75,6.824v0.335v0.348l1.025,8.872l11.59,13.646h0.348l0,0v0.339l4.766,7.838l0.348-1.013v-0.349l3.757-10.574l0,0l0.339-0.341
		l0,0l6.821-8.87l0.339-0.333l8.523-4.097h0.689l5.461,3.413l7.156-0.692l-2.39-11.932l1.364-0.333l6.482-0.682l6.819,0.333h0.682
		v0.349l13.65,6.132l11.595,2.378h0.335l0,0h0.347l3.753,2.738l5.452,2.048v0.343l0,0l0,0l0,0l3.418,3.065l2.05,0.682l3.747-3.412
		v-0.335l5.796-4.445l3.069-5.791l5.463,3.074v0.339v0.347l1.367,4.421v1.028l-0.688,2.722l0.343,0.689l3.408-1.708l4.775-4.771
		h4.433v0.333h0.347l3.067,2.051c2.043,2.046,2.731,3.754,2.043,5.456l-0.335,7.503l2.037,3.757l0.687,0.341
		c8.188-8.87,13.649-13.303,17.052-13.303h9.209l2.05-4.434l7.165-3.416h0.343l8.865-0.67l9.219-4.78v-0.347h5.791l-1.024-2.717
		l0.344-0.688l1.362-1.371l-12.623-26.945v-0.685l-0.344-0.332l5.459-7.513l-1.701-1.709l-9.216-1.7h-1.02l0,0v-0.68l-5.794-6.136
		l0.339-1.377l-0.339,0.351l-0.34,0.331l-5.125-3.402c-2.383,3.071-4.776,5.117-7.499,5.799c-2.394,1.012-6.144-1.701-11.261-7.852
		l-2.726-3.403c-0.338-0.682-2.727,0-6.475,1.359c-5.793,2.044-9.558,2.395-11.262,1.363c-1.698-1.702-2.386-5.108-1.698-9.554
		c0.329-3.751,0-5.79-0.688-6.811l-44.342-2.389c-4.102-1.712-7.506-3.414-9.217-5.118l-6.816-1.698
		c-2.729-1.033-7.848-5.466-14.671-13.989l-4.428,3.755l-6.824-2.055l-18.416,0.339l0,0l0,0L890.199,673.797z"/>
	<path fill="#EEB718" d="M1114.295,771.686l-0.341-0.341l-7.507-6.478l-4.089,2.045c-2.729,6.136-6.479,9.881-11.257,11.603
		c-1.36,0.68-3.067,0.333-4.092-0.689c-1.359-1.71-0.684-5.466,1.71-11.258l-11.265,7.17l-0.335,0.68h-0.343h-9.893l-8.868,4.431
		v0.684l-9.559,0.335l-5.117,2.731l-2.378,4.773l-0.686,0.684h-11.26c-2.041,0-6.469,3.413-13.64,10.57
		c3.411,1.37,5.12,2.737,5.802,3.766l0.334,2.047v-0.351l5.118,19.102l0,0l0.345,1.029v1.363h-0.345l-0.682,0.335h-0.334
		l-13.65,18.763l0.685,4.774c2.044-1.703,3.752-2.048,5.115-1.364c1.71,0.683,2.387,3.419,1.71,7.513
		c-0.688,6.475,0.34,13.641,3.402,20.466l4.781,5.106c1.7,1.713,2.382,3.415,2.043,5.123l-2.381,3.406l3.063,4.087
		c1.708,3.424,0.343,9.221-3.754,17.399l4.431,7.503l0.683,1.704l2.738-1.704c4.429-4.097,8.181-5.113,11.248-4.097
		c2.055,0.684,3.07,2.398,3.409,4.097c0.347,2.384-2.377,6.485-8.524,12.625l-4.77,6.138l2.381,3.759
		c3.411-3.073,6.143-4.094,7.85-3.422c2.046,0,7.842-2.037,17.73-7.16c3.078-1.7,7.172,0,12.291,5.123l2.041-1.031l-0.341-4.092
		l-1.021-0.682c-0.68-1.019,0-2.043,1.021-3.073l-1.7-6.48c-0.349-1.019-0.349-2.385,0-3.402c1.022-1.033,2.383-1.715,3.75-2.398
		l3.074-2.723l-1.715-4.097v-0.335h0.349v-0.353c1.366-2.031,1.366-3.741,1.014-4.758c-1.362-2.396-0.326-4.101,2.394-6.486
		l3.758-3.412l-0.685-0.676l-1.026-1.033l4.432-2.043v-5.458c0-2.049,1.707-4.773,6.481-8.18l2.045-1.715l0,0l-5.112-5.796
		c-1.707-2.389-1.02-5.456,2.046-8.531v-0.674l10.574-8.874l0.347-2.381c-2.05-0.695-2.731-4.437-1.71-10.235
		c1.363-9.215,5.456-13.65,12.62-14.667l0,0h0.679l4.443,2.385h4.766l4.436-5.47l0,0l0,0l0.343-0.329l5.453-3.408l-0.678-4.782
		v-1.021l0.678-0.684l1.369-0.684l1.711-2.044l0.335-0.339l-3.415-5.802c-3.406-4.428-6.477-8.525-8.527-13.294
		c-1.703-3.083-1.354-6.488,1.025-10.241l-6.146-3.749L1114.295,771.686z"/>
	<path fill="#EEB718" d="M1142.265,817.389l-0.688,0.349l-5.787,4.084l-5.125,5.799h-0.343v0.686h-7.503l0,0l-4.089-2.392
		c-5.121,1.363-7.845,4.77-8.87,11.252l-0.339,5.803l4.088-3.75l-2.725,11.244v0.359v0.331l-11.255,9.895
		c-1.708,2.047-2.385,3.755-1.708,4.777l2.046,2.387c2.391,2.049,3.75,3.763,3.417,5.114c0,1.029-0.354,2.054-1.026,2.737
		l-7.172,6.139c0.355,1.7,0.355,4.422,0,7.499v1.021l-0.331,0.349l-2.731,1.018c0,1.7-0.684,2.734-2.383,4.437l-3.756,3.749v0.339
		c0.681,1.715,0.681,3.748-0.679,6.825c1.703,3.415,1.703,5.811,0,6.817l-3.414,3.417l-0.686,0.336l-1.7,0.684v0.683l2.386,8.185
		h0.677c5.796-0.685,11.944-0.685,18.771,0h0.682v0.345l7.499,7.503v0.345h0.339l4.436,12.611l9.201,8.529l3.76,1.363l0.338-10.572
		l8.526,8.533l1.366-1.363l6.149-12.63l1.013-7.154l1.023,0.338h0.684l6.479,0.345l-0.346-5.123v-1.017v-0.684h1.027l8.531,0.335
		c4.432-4.43,6.478-8.188,6.478-11.255l-1.364-12.272l7.506,2.388l2.047-3.414l-3.41-3.414l-1.025-1.362l6.832-6.822l0.34,0.678
		h0.674l4.093,2.384v-1.013l-2.72-6.14l1.017-1.032l1.703-1.013l-0.686-2.39l-3.406-6.48l0.683-0.339l0.69-0.686l9.2-5.105
		l0.349-3.763c-7.85-4.091-11.935-7.509-11.261-9.212c0.339-1.369,1.021-1.704,2.729-1.704l10.23,1.704l0.356-6.139v-0.688
		l5.108-5.105l1.356-3.753c-2.044-0.684-3.401-2.05-4.767-3.415l-0.347-0.682v-0.686l0.347-1.698l-0.347-0.684l-0.679-0.343
		l-0.347,0.343c-0.683,1.363-2.382,2.382-4.772,2.382c-3.761,0-6.824-1.698-9.205-4.084v-0.353h-0.34l-2.739-4.774l-0.675,0.676
		c-0.347,2.055-1.707,4.099-4.104,5.811c-4.432,2.043-8.522,2.725-12.612,1.026c-2.732-1.026-4.43-3.067-5.463-6.151l-1.027-6.813
		c-1.017-6.482-2.38-10.238-4.43-11.255c-2.045-1.365-4.095-1.71-5.796-1.365l0.344,5.803L1142.265,817.389z"/>
	<path fill="#EEB718" d="M1196.163,719.842c-3.758,1.703-6.825,3.057-9.218,3.397c-2.05,0-5.449-0.683-10.23-2.376l-7.846-1.021
		c-2.39,1.021-5.117,4.426-8.867,10.225l5.112,10.915l-8.523,4.775h-0.343l-6.822-2.047c2.738,5.113,3.409,8.185,2.387,9.554
		l-0.683,2.728c-1.704,4.088-3.069,6.491-4.431,7.845l-11.938,10.577l3.063,1.7l-2.035,1.712c-2.736,2.384-3.417,5.109-2.06,7.16
		l8.198,12.622h0.336v0.334l3.751,6.823v0.347l0.341,0.335l-0.341,0.686v0.683v0.341l-0.683,0.677c1.71,0,3.073,0.694,4.777,1.711
		c2.725,1.708,4.774,6.48,5.796,13.642l1.371,6.812c0.679,1.716,1.357,2.736,3.067,3.422c2.726,1.36,6.134,1.029,9.201-1.024
		c1.713-1.017,2.732-2.047,2.391-3.073l-0.344-0.335v-0.682l5.803-4.092l0.682,0.677l4.436,7.505
		c1.702,1.372,3.418,2.054,6.142,2.054l1.709-0.351l0,0l-1.373-4.101l6.49,2.736h1.702h0.339l0.348,0.686l6.131,4.778l1.71-2.736
		l-0.347-11.591l0.347-0.336l0,0l4.093-5.134c0.342-0.666,0-2.035-1.713-3.738l-1.017-1.03l0.678-0.68l0.339-0.684l1.032-0.337
		l8.526-13.991l0.682,0.35l1.708,0.33l0.678,0.35v0.676l-0.678,5.465h0.678l9.55-8.521l-0.683-4.442h-1.707l-3.406,0.339
		l5.796-15.695l-5.114-0.678l0,0h-0.682v-0.67l-1.711-2.055c-1.021-2.046-1.021-3.754,0.342-5.458l8.188-0.333h5.114
		c0-1.718-1.018-4.782-4.084-9.904l-7.169-2.387l7.497-7.157v-1.704l-3.741,0.682h-1.367v-0.346l-0.34-0.336l-0.343-0.688
		c-1.027-3.416-3.065-6.135-6.14-7.161l-13.643,0.34l-5.799,6.821v0.343l-1.712-0.343l-21.486-6.821l20.81-5.461
		c1.363,0,4.775-3.407,10.574-10.234l-7.168-5.108L1196.163,719.842z"/>
	<path fill="#EEB718" d="M1114.975,660.487h-0.336v-0.335c-3.753-12.964-7.163-20.136-9.549-21.154l-11.941-4.091
		c-6.82-2.049-11.591-3.412-13.642-4.775c-3.409-2.054-7.846-6.823-12.963-14.669h-2.055l0.346,0.343
		c0.686,2.725,3.417,7.503,9.215,14.326l0.34,0.335l0.343,0.688l-5.461,9.891c-2.054,3.75-4.092,5.47-6.138,4.778
		c-1.362-0.686-4.097-3.764-8.519-9.554l-5.813-1.709c0,1.709,1.024,5.121,3.41,10.577v0.339v0.347v0.339v0.353l-1.018,3.737
		l-6.141,2.725l0,0l-2.044,0.682c-1.034,1.033-1.034,2.729-0.689,4.782c0.689,5.117,0.344,8.177-0.683,9.55
		c-0.675,0.682-1.021,0.682-1.707,0.682h-0.331l0,0l-6.821-1.367c0.336,1.367,1.36,2.73,3.067,3.758
		c3.411,3.073,6.13,7.509,8.872,12.617l0.336,1.026l0,0l3.068-0.688c3.755-0.676,7.161,0,10.571,2.39l3.758,4.436l0.34,0.339v0.343
		h-0.34l-0.346,8.872c1.026,1.361,1.701,3.062,1.026,4.432c-0.681,1.712-2.046,2.717-4.438,3.075c-2.728,0-4.081,1.704-4.775,5.109
		l0,0l0,0v0.341l-2.725,5.794l4.089,4.093l8.87,1.71h0.682l0,0l4.437,4.775l-5.464,8.187l12.625,27.287l0.346,0.684l-2.046,2.399
		l0.684,2.037h0.334l23.197-14.67l-3.76,6.833c-3.063,5.118-4.763,9.541-5.445,12.615c4.093-1.708,7.502-4.778,9.549-10.229
		l0.339-0.691h0.338l6.48-3.409l0.342-0.688l9.219,8.202l10.226,0.333l0.346,0.345l4.768,3.063l12.621-10.909
		c1.022-1.034,2.049-3.067,3.414-6.482l1.367-2.734c0.336-1.361-1.367-4.77-4.781-10.57l-3.067-4.43l15.006,5.102l4.439-2.376
		l-4.439-9.556l-0.34-0.342l7.504-9.883l-3.068-4.789c-3.067-3.403-5.115-5.107-6.484-5.107l-0.683,0.343l-3.752,3.754l-0.677-0.349
		h-0.686l-6.144-2.044l-1.701-5.461c-2.389-0.335-4.771-1.704-6.822-4.087l-3.749-2.394c-3.071-1.354-4.777-3.062-4.777-4.776
		c-0.674-2.037,0-4.433,2.052-7.49c3.743-5.466,5.794-9.903,5.794-13.306v-4.44l2.389,0.34l7.847,0.342
		c0.682-0.682,1.7-4.083,3.063-10.227l-2.382-0.347c-5.465,3.754-9.559,6.138-12.626,7.172c-3.751,1.015-8.526-1.034-15.34-5.811
		v-0.341L1114.975,660.487z"/>
	<path fill="#EEB718" d="M1077.798,431.949l-1.021-0.679c-1.707,0-3.417,1.706-5.116,5.459l-1.025-0.681l-0.348,0.34l0.348,0.341
		l-3.063,3.074l-1.372,0.676l-3.749,2.046l-0.346,2.386c0.346,3.758-0.681,6.489-2.387,7.508l-1.364,4.095
		c-0.339,1.025-0.682,3.75-0.339,7.504l2.042,10.233c0.686,1.364,2.394,3.07,5.811,4.434l7.839,2.048
		c2.043,0,4.772-1.028,7.85-3.071l-2.051-3.755v-0.686v-0.332l0.68-3.074v-0.341l3.756-6.821h6.482l1.699-0.339
		c-0.683-2.049-2.726-5.8-6.474-10.573l-2.398-3.413c-1.359-2.73-2.719-5.802-3.065-9.89
		C1079.506,435.362,1078.48,433.316,1077.798,431.949z"/>
	<path fill="#EEB718" d="M1046.763,418.991l-0.686,1.022l-1.023-0.341l-4.438-0.682l-0.338,2.05v1.019h-1.021l-7.163,2.733
		l-0.349,1.02c-1.017,2.388,0,4.435,2.394,7.161l0.681,0.683l-0.681,1.022c-2.045,3.412-5.12,6.824-8.522,9.21
		c-1.364,1.018-1.711,2.045-1.711,3.068l2.389,3.071l3.749,1.367l3.072,0.341c4.092,0,6.815,0.345,7.848,2.048l3.408,2.383
		c2.392,1.027,4.43,1.709,6.143,1.709c1.363,0,3.063-1.025,4.439-3.755l2.722-3.065l2.045-6.484l-1.703-7.509l2.728,0.687
		l4.437,0.34l2.038-1.364l0.681-1.705l-3.409-9.894l1.03-3.41c1.023-2.047,2.379-2.729,3.753-3.07h0.342l-0.689-2.385l-8.18,0.341
		v-0.341l-7.504-5.113c-3.071-2.05-6.138-2.392-8.869-1.707l-1.031,0.676c-0.677,1.364,0,2.731,2.056,3.416
		C1047.104,414.903,1047.786,416.606,1046.763,418.991z"/>
	<path fill="#EEB718" d="M1173.991,332.355l-4.098,5.458c-0.682,1.022-1.024,3.068-0.347,6.477v2.047h-8.184h-0.34l0,0l-5.792-1.704
		l-4.439,6.825l-0.683,0.677l-5.462,3.414l-4.771,5.113l0,0l-0.685,1.027l0,0l-8.527,9.889v0.344h-0.342l-6.469,3.407l-5.123-3.407
		v-0.344l0,0l0,0l-4.778-5.113l-3.068-1.71l2.384,13.985l2.055,7.506l-5.115,4.77l-7.177,10.579v4.432l-0.327,0.344h-0.346
		l-1.709,2.729l1.373,2.383h2.725l9.892,2.732h0.336h0.349v0.342h0.336l2.042,2.047l2.732,1.362l0,0h0.685v0.339
		c1.02,1.366,1.7,2.734,1.7,4.094l1.035,3.068l10.561,3.073l3.073-0.683l3.073-4.095l8.188-15.685h0.335v-0.343l3.752-5.117
		l0.338-0.342l6.483-3.069l4.439-0.342c1.7-2.73,3.064-4.097,4.771-4.097c1.025,0,2.726,0.686,5.462,2.048l0.686,0.347v0.337
		l5.793,8.868v0.342h0.342v0.682l0.681,6.482l-0.334,7.163l0,0l-1.711,6.137l0,0v0.681h-0.335l-4.436,5.458l-2.053,4.436
		l0.341,7.507h0.688l2.382-1.025l2.738-2.388l0.676-0.682l0.339-0.687l3.407,3.072v0.342v5.458h-0.335l-3.072,1.361l-1.015,1.374
		v3.065l-0.349,0.341l0,0l-2.047,3.749h-0.343l-0.676,0.341l-2.734,0.34l-2.73,0.688l-2.042,3.749l0.336,0.684l11.26-1.364
		l2.045-1.705l3.747-9.887l0,0l25.247-25.929h0.685l5.459-2.73l0.335-0.337v0.337h4.437l4.43-1.024l4.779-2.043l3.404-3.751
		l5.469-15.01l0,0v-0.339l21.145-22.172v-0.344l-1.364-11.933c-1.021-0.342-2.393-1.031-3.074-2.052l-0.678-0.68v0.342l-3.415,0.338
		c-1.7-0.68-2.73-1.364-4.088-3.067l-1.025-2.043v-0.344l-0.339-0.342v-18.421c-2.05-0.683-4.096-2.045-6.478-4.432l-4.443-4.779
		l-4.086-5.799c-0.686-1.359-0.686-3.408-0.342-6.478l0.342-1.706l-2.391-3.07l-0.339,2.728l-3.077,5.796h-1.017
		c-2.393,0-5.113-0.336-7.164-1.363c-2.048-0.684-3.071-2.385-3.071-4.433v-1.361h-1.702l-6.479,1.703l-4.777-4.778l-1.707-0.337
		l-1.707,1.702l2.051,3.413l0.683,1.024l-3.406,7.159h-0.349v0.345h-0.338l-6.14,6.822l-0.347,0.336h-0.682l-9.556,1.028
		L1173.991,332.355z"/>
	<path fill="#EEB718" d="M1181.498,227.98l-1.373-7.165l-3.41,2.046h-0.343l-8.182,3.074l-0.349-0.685l-1.362-0.341v3.755
		l-0.339,0.337l-4.093,6.141h-0.339v0.338h-0.348l-6.13,5.118h-0.681v0.682l-1.034-0.682c-4.091-1.703-6.817-3.753-7.501-5.456
		c-0.683-0.68-1.026-0.68-1.707-1.024l-4.433,0.683l-2.728,2.728l7.16,6.14l5.802,2.386l0.343,0.341h0.34l0.338,0.686v0.341
		l1.033,6.82h0.326v10.572l1.37,6.143l4.097,9.547l4.773,4.436l3.749-2.729l2.732-3.411v-0.341h0.335l4.782-5.799l4.096,3.753v0.341
		l0,0l0,0v0.342l4.089,7.843l5.117,2.05l2.733,8.186v0.338v0.34l-0.349,7.508v0.338h-0.331l-2.054,6.821l3.754,3.411l4.098-2.047
		l4.083-4.09l1.028,0.681l3.408,1.022l0,0l0,0l4.09,3.754l4.44-1.021c3.408-1.028,5.117,0,6.137,2.385v3.069l0.68,0.344l4.778,1.361
		l2.041-4.433v-1.705c0-1.366,0.343-2.73,1.37-3.069l2.728,0.339c3.758,1.708,5.46,4.094,5.46,6.825l-0.34,2.385v4.094l3.754,5.46
		l4.427,4.774c1.365,1.707,3.072,2.384,4.78,3.066h0.677c1.023,0.686,1.712,2.394,1.712,6.146v15.346
		c0.681,1.366,1.699,2.386,2.725,2.726h0.674c2.058-1.023,3.419-0.683,5.125,1.025l1.025,0.681c1.703,0.341,3.064,1.704,3.41,4.43
		l0.678,8.531l7.847-16.027c2.382-8.527,5.113-13.648,8.864-14.324c3.076-1.028,7.848,0.676,13.985,4.09l22.178,1.707l0.676-4.782
		l-10.236-9.89c-4.768-2.726-6.809-4.774-6.126-6.139l7.841,0.342c7.161,2.389,13.981-1.703,20.466-13.303l0,0h0.335l7.508-7.163
		l1.028-15.688v-1.708h1.024h0.678l5.8-1.364h1.021l0.686,0.343v0.341l11.931,12.621l3.414-1.367l0.678-2.046l-6.476-6.141
		l-1.027-0.68l-0.674-1.025l9.884-5.798l-0.678-14.327l-4.096,0.684l0,0h-0.338l-5.454-2.733c-2.054-0.338-4.781-1.705-8.871-4.091
		c-2.045-1.022-3.418-2.046-3.418-3.411v0.343c0,1.364-0.342,2.046-1.021,2.386c-1.021,0.683-2.385,1.022-4.774,1.022h-0.341
		l-0.334-0.34h-0.34l-4.783-3.411l-4.094,3.411c-2.039,1.704-3.413,3.073-3.413,4.434l2.056,4.437
		c1.018,1.362,1.018,2.045,0.674,3.067c-0.674,1.023-2.39,2.055-4.773,2.392l-2.044,1.021c-2.388,0.683-4.438,0.34-5.802-1.358
		l-0.68-1.031l-8.87-9.208c-4.091-1.366-6.483-3.071-7.507-5.114c-0.682-1.026-1.031-2.049-0.682-2.73
		c-0.35-3.066-1.027-5.115-1.708-6.14l-1.706,1.025l-0.336,0.68c0,1.021,0.336,2.048,1.366,3.413l0.336,0.68l0.34,0.342l-0.34,0.682
		l-4.776,7.844l-7.836-1.704l-1.715-1.025l0,0v-1.023c0.678-1.364,0.678-3.069,0-4.773l-1.02-2.727l-6.481-4.779l-0.344-0.341
		c-0.678,1.025-1.36,1.025-2.043,1.366l-6.138-0.685c-2.053-0.34-3.41-0.682-4.095-2.044c-0.342-0.682-0.342-2.046,0.341-3.755
		l0.344-1.019l-2.731-4.774l-11.932,0.681c0.335,1.707,0,2.729-0.689,4.094c-0.345,1.019-1.709,1.366-2.729,1.366
		c-1.699,0.677-3.756,0-5.457-1.707v-0.341h-0.344c-2.728-3.071-3.755-5.456-3.755-7.506l-2.381-3.411l-3.409,2.392
		c-3.065,1.701-5.118,1.701-6.142,0.336l-1.367-0.336l-3.407,0.336l-9.206,3.071c-2.046,1.367-3.76,1.706-5.117,1.706h-1.025
		c-3.409,0-5.464-1.023-6.819-2.386l-5.466-4.434L1181.498,227.98z"/>
	<path fill="#EEB718" d="M1393.651,163.854l-5.117-33.429l0.342-0.679h0.342c2.381-3.752,3.744-6.82,3.07-9.209l-1.364-2.048
		c-3.754-2.384-5.462-7.844-4.436-17.058h-3.071c-2.39-0.337-5.118,0.686-7.842,2.39c-2.731,2.046-4.44,4.437-4.782,6.141
		c-1.365,4.092-5.792,6.823-13.298,9.207l-1.701,10.578v0.339l-0.349,0.34l-3.752,6.827l-0.338,0.679h-0.34h-0.347l-33.761,6.139
		h-0.347h-1.024v-0.678l-9.885-10.576l3.074-3.069l-3.76-5.118l-4.771-3.41l-0.346-0.343h-0.339v-0.34v-0.343l-1.708-9.209
		l-8.869,0.684l-0.684-0.684l-7.502-4.433l-26.947-4.78l-22.51-1.016l-0.686,0.677c-1.021,0-1.698-0.337-2.043-1.02l-12.969-29.334
		c-1.355-2.387-6.813-9.89-17.722-22.854c-10.239-12.62-16.04-19.442-17.746-20.806l-19.102-18.757l-3.066-1.707l-23.877-0.345
		h-0.349l-0.677-0.682c-2.391-1.701-5.799-3.41-10.916-4.433c-4.438-1.707-14.663,1.706-30.698,10.23l-0.684,0.342l0.684,4.775
		h0.343v0.342h-0.343v0.684l-2.72,5.458v0.341h-0.356l-0.329,3.749c0,3.068,0.686,6.478,1.706,9.207l2.384,1.708l5.12-0.341
		l4.431,1.024l1.708-1.362c0-3.071,1.024-5.46,2.389-6.142h3.41l11.938,3.413l2.734,0.34l-3.76,6.484v7.841
		c0,1.708,3.072,5.797,9.211,11.6c3.749,2.728,6.139,4.091,8.183,4.433l1.703-0.342l1.709-0.682l5.798-5.799l4.433-2.726v-0.345l0,0
		l9.215-1.36l2.725-5.803l8.188-4.774l7.167,4.091v0.343l0.687,0.34l6.819,11.599l2.726,7.847v1.023l-1.369,9.551l2.729,6.48v1.023
		l-2.041,7.502v6.822c2.041,6.14,3.07,10.234,3.07,11.258l-0.682,5.796l0,0v0.345l-3.42,4.773v0.344l0,0l0,0l-3.413,4.094
		l-0.334,7.5l2.055,7.847l0,0l0.326,0.341l-0.326,0.341l0,0l-2.055,11.94l-1.699,1.701c-1.373,1.025-3.072,1.025-5.126,0h-0.675
		l-3.067-3.41l-3.417,1.026l-4.438,4.772l-4.772,13.985v0.342l-0.344,0.343l-4.772,4.092h-0.688l-2.725,0.341l-5.458,7.846
		l2.733,5.115l0.677,0.68l6.821,8.527v0.342v2.726l7.506,1.027l1.36,6.82v0.342l1.027,8.187l2.049,1.704l6.825-2.046l6.482-3.751
		l1.017-0.681l2.382,11.597l3.08,4.433l0.682,0.34l2.389,4.778l5.118,4.095c0.678,1.019,2.382,1.019,4.087,1.019l1.708,0.341
		l3.07-1.36c2.382-1.026,4.775-2.052,7.503-2.393l2.041-1.024l4.777-0.339c1.705,0,2.39,0.339,3.41,1.364l6.825-4.43h0.683
		l0.681,0.34l0.343-0.34l0.684,0.679c2.727,3.074,4.088,5.8,4.088,7.162l3.078,5.115l2.373,0.686h0.352h0.339l-0.69-0.686
		c-0.334-1.701-0.334-2.727,0-3.407c0.69-1.027,2.054-1.708,4.108-1.708l12.612-0.343l0.347-0.339h0.678v0.682h0.683l3.755,7.163
		l-0.348,3.753h-0.335l4.777,1.023h0.336c-0.336-1.023-0.336-1.709,0.338-2.386l1.707-0.347l11.265,7.85
		c1.013,1.021,1.694,2.388,2.04,4.092l0.34,4.772l3.75,0.683l2.394-4.09c-1.028-2.052-1.711-4.095-1.37-5.457
		c0.343-1.366,0.683-2.391,2.055-3.071l1.023-1.023c0-0.682,0.342-1.023,1.016-1.363l3.063,0.34
		c1.713,1.023,3.085,4.436,3.763,10.232v0.682l0.685,0.343c0.339,1.364,2.382,2.386,5.457,3.408h0.342l0.342,0.341l10.913,11.255
		l0,0l5.113-1.705l-0.683-1.703c-1.365-1.704-1.703-3.412-1.703-4.438c0-2.387,1.703-4.773,5.122-7.159l5.791-5.118l6.82,4.775
		h1.364l1.367-7.503v-1.363l1.36-0.342l5.462,0.681c1.023,1.025,1.702,2.05,1.702,3.753c0,1.368-1.019,3.072-2.041,4.436
		l1.022,0.682c3.407,1.706,6.131,3.068,8.182,3.409h0.338l0,0l4.437,2.389l3.409-0.343l-5.112-24.895
		c-3.407-2.047-6.478-6.141-9.557-10.918c-2.38-4.088-1.017-9.892,4.436-16.713c3.07-3.412,6.824-6.824,10.922-10.232l0,0
		l0.339-0.679h4.772l0.346,0.679l4.084,1.704h8.537c3.409-1.704,6.479-6.82,9.882-15.006
		C1395.01,189.097,1395.01,179.205,1393.651,163.854z"/>
	<path fill="#EEB718" d="M1196.842,503.244l-0.679,0.335c0,1.708-1.033,2.732-2.734,2.732l-13.304-1.363
		c-9.205-1.704-15.351-3.079-18.415-4.771l-18.76,17.729l0.686,7.507v0.682l-1.707,0.335c-14.673,2.056-22.519,0.69-23.541-4.095
		l-1.701-21.139l-17.057-1.019l-7.16,15.007l-0.686-6.483c-0.343-5.122-1.359-8.188-2.386-8.872l-7.507,3.75l-3.411,4.444
		l-0.342,0.339h-0.341l-6.819,2.377c-7.499,6.151-13.988,12.634-19.785,19.458l-18.079,24.557l3.749,8.52v1.369l0,0l-0.344,0.335
		c-1.353,2.052-0.674,5.115,1.371,8.531c2.386,4.438,4.084,9.216,4.084,14.672v1.026l-14.653,8.521v3.402l6.816,3.076
		c0.68,0.343,1.029,1.017,1.029,1.363v0.684c-0.35,1.706,2.378,4.093,7.496,6.477l12.619,3.414l3.753-2.386l4.097-5.799l3.411-9.895
		l9.889,3.754l1.366,1.026v0.674l0,0v0.345c-1.701,4.096-0.678,6.823,2.389,8.535l10.915,0.331c3.754-0.686,6.82-2.043,8.865-3.744
		c1.373-1.708,3.416-2.064,6.48-1.708c3.76,0.682,7.162,2.043,9.561,5.121l2.38-5.807l0.685-1.022h0.338
		c1.709-1.021,2.728-2.725,4.086-5.119c1.029-2.386,2.737-4.773,5.471-6.472l4.765-2.733l0.347-0.337l0.336,0.337h0.348l2.726,0.686
		l0,0l0.683,0.333l3.759-17.048v-0.34l5.453-1.029c5.453-3.753,8.185-6.816,7.85-9.554l-1.033-5.115
		c-1.363-3.408-1.363-5.796-0.681-6.814c1.033-1.028,1.714-1.367,2.729-1.367c2.388,0,5.114,0.675,7.851,2.043l0.677-5.452v-0.68
		l0.339-0.343l5.807-2.732l0.673-3.072h-3.402l-0.683-0.339l0.334-1.698v-1.034l0.349-0.676h1.021h0.681
		c2.387,0,5.122-1.359,8.187-4.097l21.486-15.354h0.686l6.824,3.075l2.729-0.346l-1.712-7.156v-0.687l0.349-0.343l0.339-0.337
		l3.753-6.137l-1.024-0.685l-2.386,0.685v0.336h-0.343l-6.822,1.023h-1.707h-0.338v-0.341l-0.347-1.018l-1.356-2.389
		L1196.842,503.244L1196.842,503.244z"/>
	<path fill="#EEB718" d="M1227.2,706.188l2.385-2.729l0,0l0,0v-0.337l-8.529-6.82c-4.43-3.068-8.184-4.103-10.908-3.752
		l-3.749,1.365v7.168c-0.686,2.376-1.707,5.107-4.104,7.158l-1.359,1.367l3.409,4.085h0.347l1.021,2.738l4.092,1.702
		c2.383-1.702,4.085-2.388,5.789-2.051l7.167,1.363l0.343-2.392C1223.445,710.288,1225.152,707.544,1227.2,706.188z"/>
	<path fill="#EEB718" d="M1177.744,631.154c-3.753-3.076-6.824-8.527-9.901-17.061c-9.886,0-15.679-1.694-18.417-5.109
		c-2.043-3.079-6.136-5.12-11.937-6.82l-1.699-0.346l1.699-5.81l-1.015-0.678l-1.712-0.335c-4.098,2.051-6.822,4.092-7.85,6.822
		c-1.362,2.729-3.06,5.102-5.113,6.823c-1.704,5.45-3.412,8.185-5.113,8.185c-1.027,0.335-1.712-0.335-2.392-1.363l-2.727-2.388
		c-2.047-1.032-4.093-2.049-5.796-2.049l-3.414,0.68c-2.391,2.388-5.806,4.1-10.917,4.785l-12.959-0.686
		c-4.094-2.049-5.806-6.138-4.774-11.258l-4.782-1.702l-2.382,6.822l0,0v0.338l-0.343,0.34l-1.021,1.36l3.072,0.693h0.673
		l0.347,0.329v0.347c5.799,7.836,10.234,12.956,12.62,14.321c1.359,0.682,5.459,2.054,12.62,4.099l12.277,4.431
		c3.75,1.701,7.506,9.212,11.599,22.515c5.466,3.754,8.868,5.456,11.26,5.117c2.387-1.019,6.474-3.405,12.281-7.17l0.336-0.333
		l0.344-0.347l0.682,0.347l6.136,1.373h0.685v1.013l-0.346,1.024c-2.044,8.187-3.749,12.957-5.117,14.332l-8.175,0.339v0.335
		c0,3.419-2.395,8.533-6.825,15.01c-1.364,2.047-1.708,3.753-1.708,4.779l7.85,5.448c2.036,2.394,3.402,3.065,5.111,3.065h1.708
		l1.7,5.805l3.752,1.369l2.05-2.045c1.02-1.026,2.38-1.714,3.406-1.363c3.416,0,6.141,2.039,9.554,6.473l0,0l3.07,4.098l0.339-0.347
		c2.046-1.363,5.8-1.017,11.265,0.684l8.858,2.053l8.197-2.736l3.41-1.708l2.386-1.7l-2.05-2.391c-0.674-1.357,0-3.062,1.705-4.775
		c2.044-1.702,3.414-3.415,3.414-5.454v-4.088c-0.688-2.056-0.341-3.413,0.339-4.099c0.688-1.365,3.072-2.049,5.801-2.725
		c4.434-0.682,9.886,1.359,16.365,6.823l-2.377-6.823l-3.752-5.117l-0.69-6.135l-5.788-1.033h-0.346v-0.331l0,0l0,0l-15.345-8.872
		l-7.508-1.359v-1.71l-0.349-7.838C1184.896,643.096,1180.807,634.222,1177.744,631.154z"/>
	<path fill="#EEB718" d="M1118.73,421.379l-2.723-1.365l0,0h-0.349l-2.05-2.045l-9.549-2.727h-2.385l-1.708,0.68l-3.753-7.162
		l0.34-0.342l2.736-3.41v-4.094l0.339-0.683l1.711-2.727l-1.373-0.685l-5.112-1.019l0,0l-8.87-1.371h-0.678l-5.121-5.117v-0.34
		l-1.704-3.411l-0.344-1.021l2.732-7.163v-5.113l-0.338-1.369l-2.735,2.73l-0.342,0.344l-0.679,1.015l-0.681-1.015l-1.027-0.344
		l-5.118-4.095l-0.681-0.683v-0.679l-1.019-7.508l-2.384-3.751l-5.124,0.34l-3.07,5.459l-0.351,0.683l-0.333,0.34l-8.189-1.703
		l-1.358,7.502v7.505l-0.34,0.341l-4.439,6.819v0.685l-0.688,0.34h-0.338l-5.117,0.339l-5.109,4.092l-0.683,0.687l0,0h-0.688
		l-0.338-0.341l-9.55-3.071l-1.365,3.412v0.34l-4.095,6.824c-0.673,1.364-1.702,2.046-2.729,2.387l-4.081-0.682l-5.469-2.39
		l-1.023-0.683l-0.345-0.336v-0.344l-1.016-8.184l-1.709-6.147l-1.022-1.701l-2.387,4.771l0,0l0,0l-4.097,5.457l-3.411,7.851v0.339
		l0,0v0.343h-0.342L984,402.62c0,1.363-1.029,3.408-3.081,6.481l2.052,7.841l10.234,11.259l0,0l3.411,7.16v0.686l-0.343,0.681
		h-0.339l-2.729,3.409l-0.678,0.684l-6.83,1.364l0.691,5.458l5.115,2.73l7.501,1.712l2.042,6.818l0,0l0,0v0.336v0.341l-1.698,11.597
		l0,0v0.345l-2.732,5.111v1.027h-0.682l-8.53,1.365v3.409l-2.385,7.509l-1.02,8.515l1.697,4.786l10.576,6.486l0.343,0.331
		l4.43,7.503v0.341l0.345,0.349l-0.345,0.336l-5.456,11.933l-1.359,3.417l0,0l-3.415,7.85l-1.359,6.137l-0.343,0.682v0.343
		c-1.709,1.364-2.726,2.721-3.416,4.771c-0.333,0.689-0.333,1.365,0.35,2.051l0.342,0.347l3.406,3.742l0,0l0,0l1.709,2.727
		l0.682-0.329l0,0l0.342,1.017v0.347v1.021l0,0v0.337l0,0l0,0l0.678,2.052l3.069,1.019l12.288,2.727
		c4.088,0,7.839-1.017,11.934-2.727c4.093-1.7,7.84-2.044,11.936-1.362l0.682-2.392l-4.097-9.209l-0.339-0.676h0.339l19.44-26.951
		l20.813-20.123h0.343l6.483-2.388l3.409-3.753v-0.335c2.736-2.05,5.113-3.414,7.844-4.442l-2.044-1.696l-4.436-4.447v-0.333h-0.339
		l-3.412-4.096l-0.343-0.683v-0.678l1.704-2.052l-4.432,1.023l-9.561-2.384c-3.745-1.706-6.135-3.752-6.815-6.143
		c-2.043-6.139-2.721-11.595-2.391-16.371c-1.364,1.705-3.072,2.05-4.771,2.05l-7.172-1.706l-4.767-3.412l-5.795-1.366h-2.737
		c-1.705,0-3.748-0.676-5.107-2.04c-2.055-1.374-3.076-2.735-3.421-4.099c-0.677-2.727,0-4.436,2.391-6.14
		c2.39-1.708,5.113-4.435,7.507-7.848c-2.393-3.068-3.414-6.139-2.393-9.205l0.342-0.343c0.344-1.707,3.073-3.072,8.187-4.778
		c0.345-1.705,1.028-2.73,1.71-3.067l5.113,0.337l-0.678-0.678c-3.414-2.047-4.436-4.439-2.729-7.163l2.729-2.047
		c3.07-1.027,6.82-0.683,10.57,1.363l7.844,5.46h7.165l2.39,2.044l0.68,2.728c0,1.708-1.022,2.729-2.389,2.729
		c-1.701,0-2.379,1.708-2.735,3.75l3.419,8.188c2.042-3.067,4.097-4.774,6.143-5.115c1.021,0,2.385,0.683,3.409,2.048
		c1.019,1.699,2.056,4.774,2.734,7.843c0.329,3.753,1.352,6.817,2.385,8.525l2.728,3.754c4.09,5.118,6.479,8.867,7.153,11.94
		l13.313-1.704l5.795-3.069l5.457-6.828l2.386-6.477v-0.342v-0.342l1.715-6.821v-0.341l0.336-0.682h0.339l5.12-3.417l1.018-0.675
		l-0.343-0.345l-8.523-2.727h-0.68v-0.341l-1.709-5.114L1118.73,421.379z"/>
	<path fill="#EEB718" d="M1243.226,895.843c-10.904,7.842-18.754,17.734-23.875,29.672c-4.433,10.236-7.842,15.345-10.228,16.71
		l2.386,18.76v0.34l0,0l-1.705,12.969c-0.681,4.09,0,6.813,1.021,7.501l13.985,9.215l0,0h0.343l0.342,1.022l0,0
		c0.675,3.072,2.725,5.797,5.454,9.209c1.371,2.045,3.075,3.068,4.438,3.748l2.047-22.505v-0.689l9.889-23.876l3.414-28.309v-0.349
		l0.34-0.333l3.059-7.507l-2.382-6.482v-0.347h-0.336l-0.681-8.858l0.34-0.339l0.341-0.343l1.696-2.045l1.021-2.395
		L1243.226,895.843z"/>
	<path fill="#EEB718" d="M907.252,1095.38l-1.021,1.715v0.335l-0.345,0.674l-13.987,3.418l0.686,1.698l4.436,5.117
		c-0.339,0-1.021,0.339-1.368,0.339l-6.475,3.416l-10.234,7.842c-3.407,4.101-2.726,11.6,2.392,22.863l10.229,1.015h0.334v0.339
		l10.239,4.782l10.909-1.703c4.439-1.026,9.554-5.118,16.032-12.968h0.341l0.682-0.686l4.776-1.359l-1.365-14.322v-0.684
		l6.143-8.874v-0.341h0.335l4.782-3.748c0.686-4.094,0.341-7.848-1.368-10.917c-1.364-2.721-3.066-3.747-4.771-3.747l0.678,5.114
		l-9.209-1.708l-4.095,2.39h-0.334l0,0H907.252L907.252,1095.38z"/>
	<g>
		<path fill="#EEB718" d="M1042.432,1013.974c-0.271-0.126-0.449-0.096-0.744,0.308c-0.3,0.418-0.451-0.03-0.519-0.477
			c-0.056-0.445-0.866-0.654-1.132-0.059c-0.279,0.608-0.632,0.568-0.994,0.608c-0.355,0.03-0.93,0.277-1.2,0.785
			c-0.26,0.519-0.713,0.548-0.798,0.128c-0.101-0.407-0.277-0.913-0.488-1.148c-0.216-0.213,0.416-0.695,1.588-0.785
			c1.174-0.102,1.287-0.226,1.825-0.498c0.539-0.299,0.514-0.62,0.092-0.553c-0.411,0.061-0.776-0.092-0.863-0.345
			c-0.086-0.257-0.421-0.544-0.839-0.417c-0.215,0.063-0.419-0.047-0.432-0.244c0,0-2.547,0.244-3.221,0.382
			c-0.664,0.116-2.023,0.676-1.822,0.833c0.182,0.154-0.336,1.095-0.969,1.187c-0.629,0.098-0.869,0.257-1.656,0.676
			c-0.775,0.41-1.736,1.397-1.879,2.055c-0.15,0.666,0.536,0.666,1.471,0.666c0.924,0,1.851,0.165,2.986-0.247
			c0.13-0.048,0.259-0.088,0.389-0.125c-0.17,0.398-0.533,0.713-0.86,0.984c0.013-0.002,0.022,0.002,0.033,0.002
			c-0.419,0.165-0.951,0.701-1.386,1.166c-0.491,0.506-1.046,0.865-1.976,1.011c-0.931,0.161-1.494,0.68-1.683,1.214
			c-0.183,0.536-0.655,1.524,0.484,1.628c1.135,0.076,1.198-0.104,1.775-0.772c0.559-0.674,1.065-0.292,1.281-0.026
			c0.208,0.257,0.531,0.437,0.782,0.257c0.237-0.199,0.173-0.396,0.056-0.829c-0.119-0.452-0.083-0.831,0.182-0.865
			c0.266-0.018,0.475-0.226,0.415-0.789c-0.063-0.58-0.122-0.733,0.218-1.112c0.202-0.237,0.298-0.566,0.247-0.764
			c0.005,0,0.008,0.004,0.012,0.004c0.186,0.022,0.335-0.094,0.457-0.225c0.248-0.26,0.911-0.597,0.862-1.035
			c0.621-0.025,1.098,0.152,1.139,0.62c0.062,0.77,0.685,1.685,1.207,1.714c0.499,0.036,0.356,0.74-0.096,0.698
			c-0.452-0.032-1.126-0.413-1.354,0.042c-0.225,0.446,0.161,0.67,0.285,1.302c0.123,0.64-0.349,0.755-0.381,1.335
			c-0.036,0.568,0.552,0.915,0.765,0.522c0.203-0.379,0.321-1.017,0.744-0.62c0.42,0.373,1.354,0.402,1.95,0.058
			c0.595-0.353,0.541-1.865,0.301-2.443c-0.24-0.572,0.09-0.923,0.453-0.855c0.353,0.058,0.775,0.913,0.83,1.323
			c0.066,0.427,0.45,0.479,0.424-0.527c-0.039-1.023-0.18-1.587-0.789-1.912c-0.596-0.314-0.651-1.365-0.436-1.779
			c0.207-0.411,1.52-0.22,2.159,0.135c0.622,0.345,0.807-0.617,0.973-0.99C1042.489,1014.791,1042.696,1014.086,1042.432,1013.974z"
			/>
	</g>
	<path fill="#EEB718" d="M1060.744,617.163l-5.113,3.417l-0.678-0.678l-13.646-3.411h-0.343v-0.349
		c-5.795-2.732-9.217-5.799-9.553-8.868l-8.184-3.757v-7.842l15-8.868c-0.682-4.085-1.706-8.19-3.409-11.593l-2.385-4.775
		l-10.236,1.022c-4.771,2.045-9.206,3.071-13.633,3.071l-10.584-2.388c0,0-2.263-2.392-7.163-0.684l-0.334,3.071
		c-0.688,1.699-1.367,2.73-0.688,3.41c1.709,2.384,1.366,5.114-0.338,7.499l1.359,5.802l-0.334,0.339l-0.688,0.347l-4.098,3.748
		v7.842l-1.021,0.345c-7.499,3.412-12.616,5.12-15.69,5.12l-15.014-1.026l-6.473,5.799h-0.339h-0.344l-25.927,10.576l-7.846,7.497
		c-1.353,11.603,0,18.422,4.102,20.476l7.499,4.77h0.338v0.353l2.051,12.607c6.477,8.536,10.917,12.967,13.302,13.983l7.508,1.708
		l1.021,0.346v0.338c1.025,1.359,3.405,2.731,7.842,4.091l20.472,1.024c15.009,0,23.54,1.022,25.238,2.734
		c1.704,1.357,2.051,4.778,1.704,9.887c-0.339,3.397,0,5.462,0.347,5.801l7.499-1.708c5.8-2.051,9.213-2.051,10.913-0.337
		l2.736,3.408c4.089,5.121,6.817,7.156,7.499,6.823c2.053-0.688,4.431-2.734,6.815-6.142l0.688-1.028l6.145,3.764l3.751-3.078
		c1.025-4.773,3.404-7.163,7.503-7.503l1.703-0.688l-0.683-1.357l-0.682-0.678l0.338-0.341l0.344-8.535
		c-2.732-4.098-6.139-5.466-9.897-4.778c-3.745,1.027-6.476,1.027-7.502-0.326c-0.675-1.033-0.675-1.715-0.675-3.08
		c-2.389-4.096-4.778-7.507-7.848-10.566c-4.097-3.418-5.119-6.492-4.097-9.558l0.687-1.021l9.552,1.696l-0.683-5.789
		c-0.347-3.418,0-5.804,1.703-7.503c0.686-1.371,2.387-2.049,4.094-2.39l4.087-1.371v-1.7c-3.063-6.48-4.087-11.255-2.728-13.304
		l2.056-1.702c1.015-0.343,4.426,0.341,9.204,2.035l0.335,0.349v0.682c3.761,4.428,5.809,7.16,6.829,7.838l6.481-10.564
		C1064.835,624.333,1061.771,619.211,1060.744,617.163z"/>
	<path fill="#EEB718" d="M1123.351,961.353c-0.744-0.335-1.488-0.791-2.231-1.382l-2.814-2.533l-7.42-6.678v-0.347l-4.438-12.962
		l-6.137-6.138c-3.754-0.171-7.078-0.257-9.977-0.257s-5.368,0.086-7.413,0.257l-1.366,0.347l0.336,4.093v0.678v1.021h-1.021
		l-2.13,0.935l-3.326,1.459l-0.685-0.454l-0.341-0.228c-4.438-4.443-7.173-6.142-8.87-5.125c-1.978,0.961-3.802,1.83-5.499,2.619
		c-8.557,3.969-13.596,5.686-15.303,4.551c-1.377,0.331-3.08,1.7-5.461,4.089l-0.682,0.904l-0.348,0.459l-1.363-1.363
		c-3.403-3.074-5.118-5.789-5.118-7.846c0-1.361,2.394-4.095,6.481-8.521c4.782-5.456,7.168-8.537,7.168-9.217l-1.025-1.703
		c-0.629-0.318-1.556-0.189-2.706,0.304c-1.333,0.572-2.967,1.641-4.802,3.107c-2.269,1.593-3.928,2.565-5.191,2.944
		c-0.633,0.188-1.173,0.241-1.629,0.127c-0.682,0-1.363-1.019-1.705-2.732l-0.34-0.686l-3.063-5.452l0,0l0,0l-6.49,4.091
		l-0.677,0.68l-0.17-0.341l-0.171-0.339l0,0h-0.341c-3.972-2.269-7.708-3.834-11.414-5.276c-0.742-0.291-1.486-0.576-2.229-0.859
		c-0.576-0.191-1.152-0.299-1.729-0.321c-2.495-0.104-4.988,1.366-7.481,4.416l3.068,5.118c2.051,5.113,3.066,8.523,2.051,10.913
		c-0.15,0.445-0.438,0.89-0.822,1.254c-0.492,0.465-1.146,0.794-1.91,0.794c-2.047,0.68-5.113,0-8.872-3.068
		c-3.067-2.055-5.456-3.755-7.499-4.779l-4.092-1.708l0,0l0,0v0.336l0,0v0.002l0.339,0.688v7.498l-5.455,6.14v5.801v0.002
		l2.382,6.137l0.086,0.086l0.26,0.26l-3.221,4.987l-0.523,0.813l0,0l0,0l-2.398,5.456v0.339l-5.117,5.116l-8.531,19.449v0.002l0,0
		l0.043,1.264l0.317,9.297l-0.36,0.351l-18.412,10.572l-1.026,2.048l2.391,5.461v0.331v0.351l-1.704,7.156l-7.502-1.026
		l-1.715,9.209h-9.545l0,0l-2.049,3.415l-2.717,5.796l-1.712,21.494l0,0v0.002l2.048,4.431l0.341,0.684v4.434l3.304,4.13
		l0.786,0.984l0.351,0.681v3.637c-0.672,2.586,0.244,3.427,0.244,3.427c0.658,0.622,2.432,1.192,3.2,0.564
		c1.433-1.139,4.231-1.22,6.04-2.067c1.31-0.624,2.423-2.491,2.84-3.598c0.143-0.387,0.23-0.777,0.283-1.156l2.39-3.191l-6.3-5.671
		c0.036-0.58-0.029-1.339-0.179-1.882c-0.272-0.982-0.646-1.393-1.73-1.393c-0.58,0-1.314-0.036-1.978-0.076l-1.064-0.871l0,0
		l-0.347-0.335l-0.336-0.351v-6.071v-0.744h5.8l0.674-2.386l-2.379-6.825h13.301l23.536-11.256l3.066-5.125l0.687-1.698l4.771,2.049
		h0.347l0.345,1.024l2.041,2.385l2.389-0.35l-0.685-5.11h7.849l7.5,1.373l3.07-5.122l0.343-0.335v-0.35l0.678-0.338l2.592-0.758
		l6.375,4.777c0.366-0.77,1.725-1.971,1.231-2.216c-0.316-0.155-0.892-3.092-0.956-3.915c-0.051-0.846,0.594-2.875,1.018-3.561
		c0.415-0.693,0.281-1.22,0.128-3.145c-0.15-1.91-0.859-3.447-0.824-4.177c0.041-0.741,0.323-2.045,0.835-2.081
		c0.499-0.045,1.153,1.641,1.382,3.059c0.082,0.47,0,2.857,0.323,5.106c0.353,2.546,1.111,4.963,1.359,5.116
		c0.462,0.277,0.928,0.48,1.148,0.907c0.665,1.304,0.485,2.958,2.098,1.25c1.055-1.112,2.831-2.895,3.292-4.945
		c0.339-1.438-0.416-2.629-0.997-3.919c-0.466-1.051-0.63-2.313-1.612-2.853c-0.805-0.446-0.963-1.308-0.305-1.392
		c0.655-0.092,1.917,1.264,2.657,2.821c0.724,1.547,0.686,2.573,1.108,2.86c0.434,0.277,0.973,0.251,1.236,0.94
		c0.265,0.691,0.543,0.808,1.418,0.808c0.896,0,2.815-1.135,3.008-2.24c0.196-1.099-0.923-2.041-0.352-2.297
		c0.575-0.241,1.153-1.629,0.265-2.198c-0.885-0.574-1.758-1.355-1.181-3.233c0.57-1.869,0.757-2.946,0.232-3.263
		c-0.542-0.325-0.473-1.685-0.704-2.253c-0.229-0.562-2.451-1.331-3.295-1.779c-0.857-0.463-2.477-0.537-2.211-1.685
		c0.249-1.16,3.356-0.684,4.29-0.865c0.938-0.184,2.007,0.05,2.007-0.65c0-0.697-0.135-0.741-0.976-0.992
		c-0.854-0.241-1.735-1.675-1.611-2.69c0.104-1.02,0.642-2.781,0.186-3.844c-0.46-1.064-0.31-1.394,0.229-1.394
		c0.536,0,0.802,1.974,1.275,2.854c0.449,0.901,0.762,1.399,1.227,0.66c0.458-0.731,0.89-0.243,0.69,1.385
		c-0.186,1.646-0.073,2.446,0.571,3.124c0.646,0.699,2.167,0.993,2.699,1.344c0.534,0.328,0.924,0.073,1.119,1.22
		c0.185,1.15,0.079,2.213,0.84,2.942c0.773,0.743,2.315,2.216,2.849,3.111c0.3,0.502,0.508,1.285,0.895,1.377
		c0.308,0.082,0.793-0.416,1.113-0.724c0.423-0.418,1.164-0.526,1.835-0.391l0.029,0.056l0,0l0,0l0,0l0.133-0.016
		c0.048,0.012,0.098,0.022,0.145,0.038c0.338,0.098,0.862,0.783,0.862,0.532c-0.005-0.028,0.976-0.79,2.424-0.945
		c1.441-0.155,2.619-0.271,2.619-0.271c0-0.021,0.001-0.046,0.006-0.07l5.408-0.638l2.054-0.67l1.708-4.1l-3.412-2.722l-1.026-1.379
		l7.849-2.721l0.681-0.347l0.343-0.333l3.078,3.4l2.71-1.35v-5.125l1.713-0.33h5.797c4.091,0.33,7.172,2.378,9.555,5.455l0.681,1.35
		l2.387-8.185c1.367-2.043,4.101-2.376,8.193-0.674l0.678,0.341v0.335l0.338,0.345c0.344,0.337,1.025,0.688,1.37,0.688
		c1.705-0.688,7.844-4.783,17.737-12.633c0-5.117,2.729-7.838,7.162-9.203c2.516-0.275,4.096-1.25,4.966-2.529
		c1.083,0.153,1.72,0.659,1.883-0.184c0.043-0.211-0.126-0.391-0.396-0.553l0.708-1.509l6.139-0.333v-4.447
		C1125.272,962.008,1124.312,961.783,1123.351,961.353z M1118.388,967.835v-0.021l0.023,0.032
		C1118.404,967.843,1118.396,967.839,1118.388,967.835z"/>
</g>
</svg>
